<mxfile host="Electron" agent="Mozilla/5.0 (X11; Linux x86_64) AppleWebKit/537.36 (KHTML, like Gecko) draw.io/27.0.5 Chrome/134.0.6998.205 Electron/35.3.0 Safari/537.36" version="27.0.5">
  <diagram name="Page-1" id="y_ZQESW1vxMKCGsYayRb">
    <mxGraphModel dx="1826" dy="880" grid="1" gridSize="10" guides="1" tooltips="1" connect="1" arrows="1" fold="1" page="0" pageScale="1" pageWidth="1700" pageHeight="1100" math="0" shadow="0">
      <root>
        <mxCell id="0" />
        <mxCell id="1" parent="0" />
        <mxCell id="Sy6wfYp_tRHCGX6oZVIA-3" value="extra" style="shape=table;startSize=30;container=1;collapsible=0;childLayout=tableLayout;strokeColor=default;fontSize=16;align=center;" parent="1" vertex="1">
          <mxGeometry x="40" y="40" width="630" height="90" as="geometry" />
        </mxCell>
        <mxCell id="Sy6wfYp_tRHCGX6oZVIA-4" value="" style="shape=tableRow;horizontal=0;startSize=0;swimlaneHead=0;swimlaneBody=0;strokeColor=inherit;top=0;left=0;bottom=0;right=0;collapsible=0;dropTarget=0;fillColor=none;points=[[0,0.5],[1,0.5]];portConstraint=eastwest;fontSize=16;align=left;" parent="Sy6wfYp_tRHCGX6oZVIA-3" vertex="1">
          <mxGeometry y="30" width="630" height="20" as="geometry" />
        </mxCell>
        <mxCell id="Sy6wfYp_tRHCGX6oZVIA-5" value="id" style="shape=partialRectangle;html=1;connectable=0;strokeColor=inherit;overflow=hidden;fillColor=none;top=0;left=0;bottom=0;right=0;pointerEvents=1;fontSize=16;text-align:right;align=left;" parent="Sy6wfYp_tRHCGX6oZVIA-4" vertex="1">
          <mxGeometry width="53" height="20" as="geometry">
            <mxRectangle width="53" height="20" as="alternateBounds" />
          </mxGeometry>
        </mxCell>
        <mxCell id="Sy6wfYp_tRHCGX6oZVIA-6" value="INTEGER" style="shape=partialRectangle;html=1;connectable=0;strokeColor=inherit;overflow=hidden;fillColor=none;top=0;left=0;bottom=0;right=0;pointerEvents=1;fontSize=16;align=left;" parent="Sy6wfYp_tRHCGX6oZVIA-4" vertex="1">
          <mxGeometry x="53" width="77" height="20" as="geometry">
            <mxRectangle width="77" height="20" as="alternateBounds" />
          </mxGeometry>
        </mxCell>
        <mxCell id="Sy6wfYp_tRHCGX6oZVIA-7" value="PRIMARY KEY AUTO" style="shape=partialRectangle;html=1;connectable=0;strokeColor=inherit;overflow=hidden;fillColor=none;top=0;left=0;bottom=0;right=0;pointerEvents=1;fontSize=16;align=left;" parent="Sy6wfYp_tRHCGX6oZVIA-4" vertex="1">
          <mxGeometry x="130" width="170" height="20" as="geometry">
            <mxRectangle width="170" height="20" as="alternateBounds" />
          </mxGeometry>
        </mxCell>
        <mxCell id="Sy6wfYp_tRHCGX6oZVIA-54" style="shape=partialRectangle;html=1;connectable=0;strokeColor=inherit;overflow=hidden;fillColor=none;top=0;left=0;bottom=0;right=0;pointerEvents=1;fontSize=16;align=left;" parent="Sy6wfYp_tRHCGX6oZVIA-4" vertex="1">
          <mxGeometry x="300" width="330" height="20" as="geometry">
            <mxRectangle width="330" height="20" as="alternateBounds" />
          </mxGeometry>
        </mxCell>
        <mxCell id="Sy6wfYp_tRHCGX6oZVIA-8" value="" style="shape=tableRow;horizontal=0;startSize=0;swimlaneHead=0;swimlaneBody=0;strokeColor=inherit;top=0;left=0;bottom=0;right=0;collapsible=0;dropTarget=0;fillColor=none;points=[[0,0.5],[1,0.5]];portConstraint=eastwest;fontSize=16;align=left;" parent="Sy6wfYp_tRHCGX6oZVIA-3" vertex="1">
          <mxGeometry y="50" width="630" height="20" as="geometry" />
        </mxCell>
        <mxCell id="Sy6wfYp_tRHCGX6oZVIA-9" value="key" style="shape=partialRectangle;html=1;connectable=0;strokeColor=inherit;overflow=hidden;fillColor=none;top=0;left=0;bottom=0;right=0;pointerEvents=1;fontSize=16;align=left;" parent="Sy6wfYp_tRHCGX6oZVIA-8" vertex="1">
          <mxGeometry width="53" height="20" as="geometry">
            <mxRectangle width="53" height="20" as="alternateBounds" />
          </mxGeometry>
        </mxCell>
        <mxCell id="Sy6wfYp_tRHCGX6oZVIA-10" value="TEXT" style="shape=partialRectangle;html=1;connectable=0;strokeColor=inherit;overflow=hidden;fillColor=none;top=0;left=0;bottom=0;right=0;pointerEvents=1;fontSize=16;align=left;" parent="Sy6wfYp_tRHCGX6oZVIA-8" vertex="1">
          <mxGeometry x="53" width="77" height="20" as="geometry">
            <mxRectangle width="77" height="20" as="alternateBounds" />
          </mxGeometry>
        </mxCell>
        <mxCell id="Sy6wfYp_tRHCGX6oZVIA-11" value="NOT NULL UNIQUE" style="shape=partialRectangle;html=1;connectable=0;strokeColor=inherit;overflow=hidden;fillColor=none;top=0;left=0;bottom=0;right=0;pointerEvents=1;fontSize=16;align=left;" parent="Sy6wfYp_tRHCGX6oZVIA-8" vertex="1">
          <mxGeometry x="130" width="170" height="20" as="geometry">
            <mxRectangle width="170" height="20" as="alternateBounds" />
          </mxGeometry>
        </mxCell>
        <mxCell id="Sy6wfYp_tRHCGX6oZVIA-55" style="shape=partialRectangle;html=1;connectable=0;strokeColor=inherit;overflow=hidden;fillColor=none;top=0;left=0;bottom=0;right=0;pointerEvents=1;fontSize=16;align=left;" parent="Sy6wfYp_tRHCGX6oZVIA-8" vertex="1">
          <mxGeometry x="300" width="330" height="20" as="geometry">
            <mxRectangle width="330" height="20" as="alternateBounds" />
          </mxGeometry>
        </mxCell>
        <mxCell id="Sy6wfYp_tRHCGX6oZVIA-12" value="" style="shape=tableRow;horizontal=0;startSize=0;swimlaneHead=0;swimlaneBody=0;strokeColor=inherit;top=0;left=0;bottom=0;right=0;collapsible=0;dropTarget=0;fillColor=none;points=[[0,0.5],[1,0.5]];portConstraint=eastwest;fontSize=16;align=left;" parent="Sy6wfYp_tRHCGX6oZVIA-3" vertex="1">
          <mxGeometry y="70" width="630" height="20" as="geometry" />
        </mxCell>
        <mxCell id="Sy6wfYp_tRHCGX6oZVIA-13" value="value" style="shape=partialRectangle;html=1;connectable=0;strokeColor=inherit;overflow=hidden;fillColor=none;top=0;left=0;bottom=0;right=0;pointerEvents=1;fontSize=16;align=left;" parent="Sy6wfYp_tRHCGX6oZVIA-12" vertex="1">
          <mxGeometry width="53" height="20" as="geometry">
            <mxRectangle width="53" height="20" as="alternateBounds" />
          </mxGeometry>
        </mxCell>
        <mxCell id="Sy6wfYp_tRHCGX6oZVIA-14" value="TEXT" style="shape=partialRectangle;html=1;connectable=0;strokeColor=inherit;overflow=hidden;fillColor=none;top=0;left=0;bottom=0;right=0;pointerEvents=1;fontSize=16;align=left;" parent="Sy6wfYp_tRHCGX6oZVIA-12" vertex="1">
          <mxGeometry x="53" width="77" height="20" as="geometry">
            <mxRectangle width="77" height="20" as="alternateBounds" />
          </mxGeometry>
        </mxCell>
        <mxCell id="Sy6wfYp_tRHCGX6oZVIA-15" value="&lt;div&gt;NOT NULL&lt;/div&gt;" style="shape=partialRectangle;html=1;connectable=0;strokeColor=inherit;overflow=hidden;fillColor=none;top=0;left=0;bottom=0;right=0;pointerEvents=1;fontSize=16;align=left;" parent="Sy6wfYp_tRHCGX6oZVIA-12" vertex="1">
          <mxGeometry x="130" width="170" height="20" as="geometry">
            <mxRectangle width="170" height="20" as="alternateBounds" />
          </mxGeometry>
        </mxCell>
        <mxCell id="Sy6wfYp_tRHCGX6oZVIA-56" style="shape=partialRectangle;html=1;connectable=0;strokeColor=inherit;overflow=hidden;fillColor=none;top=0;left=0;bottom=0;right=0;pointerEvents=1;fontSize=16;align=left;" parent="Sy6wfYp_tRHCGX6oZVIA-12" vertex="1">
          <mxGeometry x="300" width="330" height="20" as="geometry">
            <mxRectangle width="330" height="20" as="alternateBounds" />
          </mxGeometry>
        </mxCell>
        <mxCell id="Sy6wfYp_tRHCGX6oZVIA-62" value="doc (one entire document)" style="shape=table;startSize=30;container=1;collapsible=0;childLayout=tableLayout;strokeColor=default;fontSize=16;align=center;" parent="1" vertex="1">
          <mxGeometry y="410" width="680" height="160" as="geometry" />
        </mxCell>
        <mxCell id="Sy6wfYp_tRHCGX6oZVIA-63" value="" style="shape=tableRow;horizontal=0;startSize=0;swimlaneHead=0;swimlaneBody=0;strokeColor=inherit;top=0;left=0;bottom=0;right=0;collapsible=0;dropTarget=0;fillColor=none;points=[[0,0.5],[1,0.5]];portConstraint=eastwest;fontSize=16;align=left;" parent="Sy6wfYp_tRHCGX6oZVIA-62" vertex="1">
          <mxGeometry y="30" width="680" height="20" as="geometry" />
        </mxCell>
        <mxCell id="Sy6wfYp_tRHCGX6oZVIA-64" value="id" style="shape=partialRectangle;html=1;connectable=0;strokeColor=inherit;overflow=hidden;fillColor=none;top=0;left=0;bottom=0;right=0;pointerEvents=1;fontSize=16;text-align:right;align=left;" parent="Sy6wfYp_tRHCGX6oZVIA-63" vertex="1">
          <mxGeometry width="60" height="20" as="geometry">
            <mxRectangle width="60" height="20" as="alternateBounds" />
          </mxGeometry>
        </mxCell>
        <mxCell id="Sy6wfYp_tRHCGX6oZVIA-65" value="INTEGER" style="shape=partialRectangle;html=1;connectable=0;strokeColor=inherit;overflow=hidden;fillColor=none;top=0;left=0;bottom=0;right=0;pointerEvents=1;fontSize=16;align=left;" parent="Sy6wfYp_tRHCGX6oZVIA-63" vertex="1">
          <mxGeometry x="60" width="90" height="20" as="geometry">
            <mxRectangle width="90" height="20" as="alternateBounds" />
          </mxGeometry>
        </mxCell>
        <mxCell id="Sy6wfYp_tRHCGX6oZVIA-66" value="PRIMARY KEY AUTO" style="shape=partialRectangle;html=1;connectable=0;strokeColor=inherit;overflow=hidden;fillColor=none;top=0;left=0;bottom=0;right=0;pointerEvents=1;fontSize=16;align=left;" parent="Sy6wfYp_tRHCGX6oZVIA-63" vertex="1">
          <mxGeometry x="150" width="160" height="20" as="geometry">
            <mxRectangle width="160" height="20" as="alternateBounds" />
          </mxGeometry>
        </mxCell>
        <mxCell id="Sy6wfYp_tRHCGX6oZVIA-67" style="shape=partialRectangle;html=1;connectable=0;strokeColor=inherit;overflow=hidden;fillColor=none;top=0;left=0;bottom=0;right=0;pointerEvents=1;fontSize=16;align=left;" parent="Sy6wfYp_tRHCGX6oZVIA-63" vertex="1">
          <mxGeometry x="310" width="370" height="20" as="geometry">
            <mxRectangle width="370" height="20" as="alternateBounds" />
          </mxGeometry>
        </mxCell>
        <mxCell id="Sy6wfYp_tRHCGX6oZVIA-68" value="" style="shape=tableRow;horizontal=0;startSize=0;swimlaneHead=0;swimlaneBody=0;strokeColor=inherit;top=0;left=0;bottom=0;right=0;collapsible=0;dropTarget=0;fillColor=none;points=[[0,0.5],[1,0.5]];portConstraint=eastwest;fontSize=16;align=left;" parent="Sy6wfYp_tRHCGX6oZVIA-62" vertex="1">
          <mxGeometry y="50" width="680" height="26" as="geometry" />
        </mxCell>
        <mxCell id="Sy6wfYp_tRHCGX6oZVIA-69" value="uuid" style="shape=partialRectangle;html=1;connectable=0;strokeColor=inherit;overflow=hidden;fillColor=none;top=0;left=0;bottom=0;right=0;pointerEvents=1;fontSize=16;align=left;" parent="Sy6wfYp_tRHCGX6oZVIA-68" vertex="1">
          <mxGeometry width="60" height="26" as="geometry">
            <mxRectangle width="60" height="26" as="alternateBounds" />
          </mxGeometry>
        </mxCell>
        <mxCell id="Sy6wfYp_tRHCGX6oZVIA-70" value="TEXT" style="shape=partialRectangle;html=1;connectable=0;strokeColor=inherit;overflow=hidden;fillColor=none;top=0;left=0;bottom=0;right=0;pointerEvents=1;fontSize=16;align=left;" parent="Sy6wfYp_tRHCGX6oZVIA-68" vertex="1">
          <mxGeometry x="60" width="90" height="26" as="geometry">
            <mxRectangle width="90" height="26" as="alternateBounds" />
          </mxGeometry>
        </mxCell>
        <mxCell id="Sy6wfYp_tRHCGX6oZVIA-71" value="NOT NULL UNIQUE" style="shape=partialRectangle;html=1;connectable=0;strokeColor=inherit;overflow=hidden;fillColor=none;top=0;left=0;bottom=0;right=0;pointerEvents=1;fontSize=16;align=left;" parent="Sy6wfYp_tRHCGX6oZVIA-68" vertex="1">
          <mxGeometry x="150" width="160" height="26" as="geometry">
            <mxRectangle width="160" height="26" as="alternateBounds" />
          </mxGeometry>
        </mxCell>
        <mxCell id="Sy6wfYp_tRHCGX6oZVIA-72" style="shape=partialRectangle;html=1;connectable=0;strokeColor=inherit;overflow=hidden;fillColor=none;top=0;left=0;bottom=0;right=0;pointerEvents=1;fontSize=16;align=left;" parent="Sy6wfYp_tRHCGX6oZVIA-68" vertex="1">
          <mxGeometry x="310" width="370" height="26" as="geometry">
            <mxRectangle width="370" height="26" as="alternateBounds" />
          </mxGeometry>
        </mxCell>
        <mxCell id="Sy6wfYp_tRHCGX6oZVIA-73" value="" style="shape=tableRow;horizontal=0;startSize=0;swimlaneHead=0;swimlaneBody=0;strokeColor=inherit;top=0;left=0;bottom=0;right=0;collapsible=0;dropTarget=0;fillColor=none;points=[[0,0.5],[1,0.5]];portConstraint=eastwest;fontSize=16;align=left;" parent="Sy6wfYp_tRHCGX6oZVIA-62" vertex="1">
          <mxGeometry y="76" width="680" height="24" as="geometry" />
        </mxCell>
        <mxCell id="Sy6wfYp_tRHCGX6oZVIA-74" value="name" style="shape=partialRectangle;html=1;connectable=0;strokeColor=inherit;overflow=hidden;fillColor=none;top=0;left=0;bottom=0;right=0;pointerEvents=1;fontSize=16;align=left;" parent="Sy6wfYp_tRHCGX6oZVIA-73" vertex="1">
          <mxGeometry width="60" height="24" as="geometry">
            <mxRectangle width="60" height="24" as="alternateBounds" />
          </mxGeometry>
        </mxCell>
        <mxCell id="Sy6wfYp_tRHCGX6oZVIA-75" value="TEXT" style="shape=partialRectangle;html=1;connectable=0;strokeColor=inherit;overflow=hidden;fillColor=none;top=0;left=0;bottom=0;right=0;pointerEvents=1;fontSize=16;align=left;" parent="Sy6wfYp_tRHCGX6oZVIA-73" vertex="1">
          <mxGeometry x="60" width="90" height="24" as="geometry">
            <mxRectangle width="90" height="24" as="alternateBounds" />
          </mxGeometry>
        </mxCell>
        <mxCell id="Sy6wfYp_tRHCGX6oZVIA-76" value="&lt;div&gt;NOT NULL&lt;/div&gt;" style="shape=partialRectangle;html=1;connectable=0;strokeColor=inherit;overflow=hidden;fillColor=none;top=0;left=0;bottom=0;right=0;pointerEvents=1;fontSize=16;align=left;" parent="Sy6wfYp_tRHCGX6oZVIA-73" vertex="1">
          <mxGeometry x="150" width="160" height="24" as="geometry">
            <mxRectangle width="160" height="24" as="alternateBounds" />
          </mxGeometry>
        </mxCell>
        <mxCell id="Sy6wfYp_tRHCGX6oZVIA-77" value="document name (formerly in docTree, now here)" style="shape=partialRectangle;html=1;connectable=0;strokeColor=inherit;overflow=hidden;fillColor=none;top=0;left=0;bottom=0;right=0;pointerEvents=1;fontSize=16;align=left;" parent="Sy6wfYp_tRHCGX6oZVIA-73" vertex="1">
          <mxGeometry x="310" width="370" height="24" as="geometry">
            <mxRectangle width="370" height="24" as="alternateBounds" />
          </mxGeometry>
        </mxCell>
        <mxCell id="55P-BCCrsqb_Uf09lrDD-6" style="shape=tableRow;horizontal=0;startSize=0;swimlaneHead=0;swimlaneBody=0;strokeColor=inherit;top=0;left=0;bottom=0;right=0;collapsible=0;dropTarget=0;fillColor=none;points=[[0,0.5],[1,0.5]];portConstraint=eastwest;fontSize=16;align=left;" parent="Sy6wfYp_tRHCGX6oZVIA-62" vertex="1">
          <mxGeometry y="100" width="680" height="20" as="geometry" />
        </mxCell>
        <mxCell id="55P-BCCrsqb_Uf09lrDD-7" value="content" style="shape=partialRectangle;html=1;connectable=0;strokeColor=inherit;overflow=hidden;fillColor=none;top=0;left=0;bottom=0;right=0;pointerEvents=1;fontSize=16;align=left;fontColor=#000000;" parent="55P-BCCrsqb_Uf09lrDD-6" vertex="1">
          <mxGeometry width="60" height="20" as="geometry">
            <mxRectangle width="60" height="20" as="alternateBounds" />
          </mxGeometry>
        </mxCell>
        <mxCell id="55P-BCCrsqb_Uf09lrDD-8" value="BLOB" style="shape=partialRectangle;html=1;connectable=0;strokeColor=inherit;overflow=hidden;fillColor=none;top=0;left=0;bottom=0;right=0;pointerEvents=1;fontSize=16;align=left;fontColor=#000000;" parent="55P-BCCrsqb_Uf09lrDD-6" vertex="1">
          <mxGeometry x="60" width="90" height="20" as="geometry">
            <mxRectangle width="90" height="20" as="alternateBounds" />
          </mxGeometry>
        </mxCell>
        <mxCell id="55P-BCCrsqb_Uf09lrDD-9" value="NOT NULL" style="shape=partialRectangle;html=1;connectable=0;strokeColor=inherit;overflow=hidden;fillColor=none;top=0;left=0;bottom=0;right=0;pointerEvents=1;fontSize=16;align=left;fontColor=#000000;" parent="55P-BCCrsqb_Uf09lrDD-6" vertex="1">
          <mxGeometry x="150" width="160" height="20" as="geometry">
            <mxRectangle width="160" height="20" as="alternateBounds" />
          </mxGeometry>
        </mxCell>
        <mxCell id="55P-BCCrsqb_Uf09lrDD-10" value="document content in binary" style="shape=partialRectangle;html=1;connectable=0;strokeColor=inherit;overflow=hidden;fillColor=none;top=0;left=0;bottom=0;right=0;pointerEvents=1;fontSize=16;align=left;fontColor=#000000;" parent="55P-BCCrsqb_Uf09lrDD-6" vertex="1">
          <mxGeometry x="310" width="370" height="20" as="geometry">
            <mxRectangle width="370" height="20" as="alternateBounds" />
          </mxGeometry>
        </mxCell>
        <mxCell id="-N10hWzUFT1irTYi3381-29" style="shape=tableRow;horizontal=0;startSize=0;swimlaneHead=0;swimlaneBody=0;strokeColor=inherit;top=0;left=0;bottom=0;right=0;collapsible=0;dropTarget=0;fillColor=none;points=[[0,0.5],[1,0.5]];portConstraint=eastwest;fontSize=16;align=left;" parent="Sy6wfYp_tRHCGX6oZVIA-62" vertex="1">
          <mxGeometry y="120" width="680" height="20" as="geometry" />
        </mxCell>
        <mxCell id="-N10hWzUFT1irTYi3381-30" value="dcwList" style="shape=partialRectangle;html=1;connectable=0;strokeColor=inherit;overflow=hidden;fillColor=none;top=0;left=0;bottom=0;right=0;pointerEvents=1;fontSize=16;align=left;fontColor=#000000;" parent="-N10hWzUFT1irTYi3381-29" vertex="1">
          <mxGeometry width="60" height="20" as="geometry">
            <mxRectangle width="60" height="20" as="alternateBounds" />
          </mxGeometry>
        </mxCell>
        <mxCell id="-N10hWzUFT1irTYi3381-31" value="TEXT" style="shape=partialRectangle;html=1;connectable=0;strokeColor=inherit;overflow=hidden;fillColor=none;top=0;left=0;bottom=0;right=0;pointerEvents=1;fontSize=16;align=left;fontColor=#000000;" parent="-N10hWzUFT1irTYi3381-29" vertex="1">
          <mxGeometry x="60" width="90" height="20" as="geometry">
            <mxRectangle width="90" height="20" as="alternateBounds" />
          </mxGeometry>
        </mxCell>
        <mxCell id="-N10hWzUFT1irTYi3381-32" value="NOT NULL" style="shape=partialRectangle;html=1;connectable=0;strokeColor=inherit;overflow=hidden;fillColor=none;top=0;left=0;bottom=0;right=0;pointerEvents=1;fontSize=16;align=left;fontColor=#000000;" parent="-N10hWzUFT1irTYi3381-29" vertex="1">
          <mxGeometry x="150" width="160" height="20" as="geometry">
            <mxRectangle width="160" height="20" as="alternateBounds" />
          </mxGeometry>
        </mxCell>
        <mxCell id="-N10hWzUFT1irTYi3381-33" value="&lt;i&gt;ordered&lt;/i&gt; list of [[id,S,C],...] (see note to right)" style="shape=partialRectangle;html=1;connectable=0;strokeColor=inherit;overflow=hidden;fillColor=none;top=0;left=0;bottom=0;right=0;pointerEvents=1;fontSize=16;align=left;fontColor=#000000;" parent="-N10hWzUFT1irTYi3381-29" vertex="1">
          <mxGeometry x="310" width="370" height="20" as="geometry">
            <mxRectangle width="370" height="20" as="alternateBounds" />
          </mxGeometry>
        </mxCell>
        <mxCell id="Sy6wfYp_tRHCGX6oZVIA-165" style="shape=tableRow;horizontal=0;startSize=0;swimlaneHead=0;swimlaneBody=0;strokeColor=inherit;top=0;left=0;bottom=0;right=0;collapsible=0;dropTarget=0;fillColor=none;points=[[0,0.5],[1,0.5]];portConstraint=eastwest;fontSize=16;align=left;" parent="Sy6wfYp_tRHCGX6oZVIA-62" vertex="1">
          <mxGeometry y="140" width="680" height="20" as="geometry" />
        </mxCell>
        <mxCell id="Sy6wfYp_tRHCGX6oZVIA-166" value="bump" style="shape=partialRectangle;html=1;connectable=0;strokeColor=inherit;overflow=hidden;fillColor=none;top=0;left=0;bottom=0;right=0;pointerEvents=1;fontSize=16;align=left;fontColor=#000000;" parent="Sy6wfYp_tRHCGX6oZVIA-165" vertex="1">
          <mxGeometry width="60" height="20" as="geometry">
            <mxRectangle width="60" height="20" as="alternateBounds" />
          </mxGeometry>
        </mxCell>
        <mxCell id="Sy6wfYp_tRHCGX6oZVIA-167" value="INTEGER" style="shape=partialRectangle;html=1;connectable=0;strokeColor=inherit;overflow=hidden;fillColor=none;top=0;left=0;bottom=0;right=0;pointerEvents=1;fontSize=16;align=left;fontColor=#000000;" parent="Sy6wfYp_tRHCGX6oZVIA-165" vertex="1">
          <mxGeometry x="60" width="90" height="20" as="geometry">
            <mxRectangle width="90" height="20" as="alternateBounds" />
          </mxGeometry>
        </mxCell>
        <mxCell id="Sy6wfYp_tRHCGX6oZVIA-168" value="NOT NULL" style="shape=partialRectangle;html=1;connectable=0;strokeColor=inherit;overflow=hidden;fillColor=none;top=0;left=0;bottom=0;right=0;pointerEvents=1;fontSize=16;align=left;fontColor=#000000;" parent="Sy6wfYp_tRHCGX6oZVIA-165" vertex="1">
          <mxGeometry x="150" width="160" height="20" as="geometry">
            <mxRectangle width="160" height="20" as="alternateBounds" />
          </mxGeometry>
        </mxCell>
        <mxCell id="Sy6wfYp_tRHCGX6oZVIA-169" value="&lt;b&gt;when this bumps, docTree must bump too!&lt;/b&gt;" style="shape=partialRectangle;html=1;connectable=0;strokeColor=inherit;overflow=hidden;fillColor=none;top=0;left=0;bottom=0;right=0;pointerEvents=1;fontSize=16;align=left;fontColor=#000000;" parent="Sy6wfYp_tRHCGX6oZVIA-165" vertex="1">
          <mxGeometry x="310" width="370" height="20" as="geometry">
            <mxRectangle width="370" height="20" as="alternateBounds" />
          </mxGeometry>
        </mxCell>
        <mxCell id="Sy6wfYp_tRHCGX6oZVIA-83" value="docTree (linkage to doc entries to show in left pane)" style="shape=table;startSize=30;container=1;collapsible=0;childLayout=tableLayout;strokeColor=default;fontSize=16;align=center;" parent="1" vertex="1">
          <mxGeometry x="10" y="190" width="670" height="130" as="geometry" />
        </mxCell>
        <mxCell id="Sy6wfYp_tRHCGX6oZVIA-84" value="" style="shape=tableRow;horizontal=0;startSize=0;swimlaneHead=0;swimlaneBody=0;strokeColor=inherit;top=0;left=0;bottom=0;right=0;collapsible=0;dropTarget=0;fillColor=none;points=[[0,0.5],[1,0.5]];portConstraint=eastwest;fontSize=16;align=left;" parent="Sy6wfYp_tRHCGX6oZVIA-83" vertex="1">
          <mxGeometry y="30" width="670" height="20" as="geometry" />
        </mxCell>
        <mxCell id="Sy6wfYp_tRHCGX6oZVIA-85" value="id" style="shape=partialRectangle;html=1;connectable=0;strokeColor=inherit;overflow=hidden;fillColor=none;top=0;left=0;bottom=0;right=0;pointerEvents=1;fontSize=16;text-align:right;align=left;" parent="Sy6wfYp_tRHCGX6oZVIA-84" vertex="1">
          <mxGeometry width="68" height="20" as="geometry">
            <mxRectangle width="68" height="20" as="alternateBounds" />
          </mxGeometry>
        </mxCell>
        <mxCell id="Sy6wfYp_tRHCGX6oZVIA-86" value="INTEGER" style="shape=partialRectangle;html=1;connectable=0;strokeColor=inherit;overflow=hidden;fillColor=none;top=0;left=0;bottom=0;right=0;pointerEvents=1;fontSize=16;align=left;" parent="Sy6wfYp_tRHCGX6oZVIA-84" vertex="1">
          <mxGeometry x="68" width="80" height="20" as="geometry">
            <mxRectangle width="80" height="20" as="alternateBounds" />
          </mxGeometry>
        </mxCell>
        <mxCell id="Sy6wfYp_tRHCGX6oZVIA-87" value="&lt;span style=&quot;color: rgb(0, 0, 0); font-family: Helvetica; font-size: 16px; font-style: normal; font-variant-ligatures: normal; font-variant-caps: normal; font-weight: 400; letter-spacing: normal; orphans: 2; text-align: left; text-indent: 0px; text-transform: none; widows: 2; word-spacing: 0px; -webkit-text-stroke-width: 0px; white-space: nowrap; background-color: rgb(236, 236, 236); text-decoration-thickness: initial; text-decoration-style: initial; text-decoration-color: initial; display: inline !important; float: none;&quot;&gt;PRIMARY KEY AUTO&lt;/span&gt;" style="shape=partialRectangle;html=1;connectable=0;strokeColor=inherit;overflow=hidden;fillColor=none;top=0;left=0;bottom=0;right=0;pointerEvents=1;fontSize=16;align=left;" parent="Sy6wfYp_tRHCGX6oZVIA-84" vertex="1">
          <mxGeometry x="148" width="162" height="20" as="geometry">
            <mxRectangle width="162" height="20" as="alternateBounds" />
          </mxGeometry>
        </mxCell>
        <mxCell id="Sy6wfYp_tRHCGX6oZVIA-88" style="shape=partialRectangle;html=1;connectable=0;strokeColor=inherit;overflow=hidden;fillColor=none;top=0;left=0;bottom=0;right=0;pointerEvents=1;fontSize=16;align=left;" parent="Sy6wfYp_tRHCGX6oZVIA-84" vertex="1">
          <mxGeometry x="310" width="360" height="20" as="geometry">
            <mxRectangle width="360" height="20" as="alternateBounds" />
          </mxGeometry>
        </mxCell>
        <mxCell id="Sy6wfYp_tRHCGX6oZVIA-89" value="" style="shape=tableRow;horizontal=0;startSize=0;swimlaneHead=0;swimlaneBody=0;strokeColor=inherit;top=0;left=0;bottom=0;right=0;collapsible=0;dropTarget=0;fillColor=none;points=[[0,0.5],[1,0.5]];portConstraint=eastwest;fontSize=16;align=left;" parent="Sy6wfYp_tRHCGX6oZVIA-83" vertex="1">
          <mxGeometry y="50" width="670" height="20" as="geometry" />
        </mxCell>
        <mxCell id="Sy6wfYp_tRHCGX6oZVIA-90" value="uuid" style="shape=partialRectangle;html=1;connectable=0;strokeColor=inherit;overflow=hidden;fillColor=none;top=0;left=0;bottom=0;right=0;pointerEvents=1;fontSize=16;align=left;" parent="Sy6wfYp_tRHCGX6oZVIA-89" vertex="1">
          <mxGeometry width="68" height="20" as="geometry">
            <mxRectangle width="68" height="20" as="alternateBounds" />
          </mxGeometry>
        </mxCell>
        <mxCell id="Sy6wfYp_tRHCGX6oZVIA-91" value="TEXT" style="shape=partialRectangle;html=1;connectable=0;strokeColor=inherit;overflow=hidden;fillColor=none;top=0;left=0;bottom=0;right=0;pointerEvents=1;fontSize=16;align=left;" parent="Sy6wfYp_tRHCGX6oZVIA-89" vertex="1">
          <mxGeometry x="68" width="80" height="20" as="geometry">
            <mxRectangle width="80" height="20" as="alternateBounds" />
          </mxGeometry>
        </mxCell>
        <mxCell id="Sy6wfYp_tRHCGX6oZVIA-92" value="NOT NULL UNIQUE" style="shape=partialRectangle;html=1;connectable=0;strokeColor=inherit;overflow=hidden;fillColor=none;top=0;left=0;bottom=0;right=0;pointerEvents=1;fontSize=16;align=left;" parent="Sy6wfYp_tRHCGX6oZVIA-89" vertex="1">
          <mxGeometry x="148" width="162" height="20" as="geometry">
            <mxRectangle width="162" height="20" as="alternateBounds" />
          </mxGeometry>
        </mxCell>
        <mxCell id="Sy6wfYp_tRHCGX6oZVIA-93" value="uuid of doc in table:doc" style="shape=partialRectangle;html=1;connectable=0;strokeColor=inherit;overflow=hidden;fillColor=none;top=0;left=0;bottom=0;right=0;pointerEvents=1;fontSize=16;align=left;" parent="Sy6wfYp_tRHCGX6oZVIA-89" vertex="1">
          <mxGeometry x="310" width="360" height="20" as="geometry">
            <mxRectangle width="360" height="20" as="alternateBounds" />
          </mxGeometry>
        </mxCell>
        <mxCell id="Sy6wfYp_tRHCGX6oZVIA-94" value="" style="shape=tableRow;horizontal=0;startSize=0;swimlaneHead=0;swimlaneBody=0;strokeColor=inherit;top=0;left=0;bottom=0;right=0;collapsible=0;dropTarget=0;fillColor=none;points=[[0,0.5],[1,0.5]];portConstraint=eastwest;fontSize=16;align=left;" parent="Sy6wfYp_tRHCGX6oZVIA-83" vertex="1">
          <mxGeometry y="70" width="670" height="20" as="geometry" />
        </mxCell>
        <mxCell id="Sy6wfYp_tRHCGX6oZVIA-95" value="listOrder" style="shape=partialRectangle;html=1;connectable=0;strokeColor=inherit;overflow=hidden;fillColor=none;top=0;left=0;bottom=0;right=0;pointerEvents=1;fontSize=16;align=left;" parent="Sy6wfYp_tRHCGX6oZVIA-94" vertex="1">
          <mxGeometry width="68" height="20" as="geometry">
            <mxRectangle width="68" height="20" as="alternateBounds" />
          </mxGeometry>
        </mxCell>
        <mxCell id="Sy6wfYp_tRHCGX6oZVIA-96" value="TEXT" style="shape=partialRectangle;html=1;connectable=0;strokeColor=inherit;overflow=hidden;fillColor=none;top=0;left=0;bottom=0;right=0;pointerEvents=1;fontSize=16;align=left;" parent="Sy6wfYp_tRHCGX6oZVIA-94" vertex="1">
          <mxGeometry x="68" width="80" height="20" as="geometry">
            <mxRectangle width="80" height="20" as="alternateBounds" />
          </mxGeometry>
        </mxCell>
        <mxCell id="Sy6wfYp_tRHCGX6oZVIA-97" value="&lt;div&gt;NOT NULL&lt;/div&gt;" style="shape=partialRectangle;html=1;connectable=0;strokeColor=inherit;overflow=hidden;fillColor=none;top=0;left=0;bottom=0;right=0;pointerEvents=1;fontSize=16;align=left;" parent="Sy6wfYp_tRHCGX6oZVIA-94" vertex="1">
          <mxGeometry x="148" width="162" height="20" as="geometry">
            <mxRectangle width="162" height="20" as="alternateBounds" />
          </mxGeometry>
        </mxCell>
        <mxCell id="Sy6wfYp_tRHCGX6oZVIA-98" value="1-based visual ordering of docs in left pane" style="shape=partialRectangle;html=1;connectable=0;strokeColor=inherit;overflow=hidden;fillColor=none;top=0;left=0;bottom=0;right=0;pointerEvents=1;fontSize=16;align=left;" parent="Sy6wfYp_tRHCGX6oZVIA-94" vertex="1">
          <mxGeometry x="310" width="360" height="20" as="geometry">
            <mxRectangle width="360" height="20" as="alternateBounds" />
          </mxGeometry>
        </mxCell>
        <mxCell id="Sy6wfYp_tRHCGX6oZVIA-99" style="shape=tableRow;horizontal=0;startSize=0;swimlaneHead=0;swimlaneBody=0;strokeColor=inherit;top=0;left=0;bottom=0;right=0;collapsible=0;dropTarget=0;fillColor=none;points=[[0,0.5],[1,0.5]];portConstraint=eastwest;fontSize=16;align=left;" parent="Sy6wfYp_tRHCGX6oZVIA-83" vertex="1">
          <mxGeometry y="90" width="670" height="20" as="geometry" />
        </mxCell>
        <mxCell id="Sy6wfYp_tRHCGX6oZVIA-100" value="parent" style="shape=partialRectangle;html=1;connectable=0;strokeColor=inherit;overflow=hidden;fillColor=none;top=0;left=0;bottom=0;right=0;pointerEvents=1;fontSize=16;align=left;fontColor=#000000;" parent="Sy6wfYp_tRHCGX6oZVIA-99" vertex="1">
          <mxGeometry width="68" height="20" as="geometry">
            <mxRectangle width="68" height="20" as="alternateBounds" />
          </mxGeometry>
        </mxCell>
        <mxCell id="Sy6wfYp_tRHCGX6oZVIA-101" value="INTEGER" style="shape=partialRectangle;html=1;connectable=0;strokeColor=inherit;overflow=hidden;fillColor=none;top=0;left=0;bottom=0;right=0;pointerEvents=1;fontSize=16;align=left;fontColor=#000000;" parent="Sy6wfYp_tRHCGX6oZVIA-99" vertex="1">
          <mxGeometry x="68" width="80" height="20" as="geometry">
            <mxRectangle width="80" height="20" as="alternateBounds" />
          </mxGeometry>
        </mxCell>
        <mxCell id="Sy6wfYp_tRHCGX6oZVIA-102" value="NOT NULL" style="shape=partialRectangle;html=1;connectable=0;strokeColor=inherit;overflow=hidden;fillColor=none;top=0;left=0;bottom=0;right=0;pointerEvents=1;fontSize=16;align=left;fontColor=#000000;" parent="Sy6wfYp_tRHCGX6oZVIA-99" vertex="1">
          <mxGeometry x="148" width="162" height="20" as="geometry">
            <mxRectangle width="162" height="20" as="alternateBounds" />
          </mxGeometry>
        </mxCell>
        <mxCell id="Sy6wfYp_tRHCGX6oZVIA-103" value="id of parent entry" style="shape=partialRectangle;html=1;connectable=0;strokeColor=inherit;overflow=hidden;fillColor=none;top=0;left=0;bottom=0;right=0;pointerEvents=1;fontSize=16;align=left;fontColor=#000000;" parent="Sy6wfYp_tRHCGX6oZVIA-99" vertex="1">
          <mxGeometry x="310" width="360" height="20" as="geometry">
            <mxRectangle width="360" height="20" as="alternateBounds" />
          </mxGeometry>
        </mxCell>
        <mxCell id="Sy6wfYp_tRHCGX6oZVIA-170" style="shape=tableRow;horizontal=0;startSize=0;swimlaneHead=0;swimlaneBody=0;strokeColor=inherit;top=0;left=0;bottom=0;right=0;collapsible=0;dropTarget=0;fillColor=none;points=[[0,0.5],[1,0.5]];portConstraint=eastwest;fontSize=16;align=left;" parent="Sy6wfYp_tRHCGX6oZVIA-83" vertex="1">
          <mxGeometry y="110" width="670" height="20" as="geometry" />
        </mxCell>
        <mxCell id="Sy6wfYp_tRHCGX6oZVIA-171" value="bump" style="shape=partialRectangle;html=1;connectable=0;strokeColor=inherit;overflow=hidden;fillColor=none;top=0;left=0;bottom=0;right=0;pointerEvents=1;fontSize=16;align=left;fontColor=#000000;" parent="Sy6wfYp_tRHCGX6oZVIA-170" vertex="1">
          <mxGeometry width="68" height="20" as="geometry">
            <mxRectangle width="68" height="20" as="alternateBounds" />
          </mxGeometry>
        </mxCell>
        <mxCell id="Sy6wfYp_tRHCGX6oZVIA-172" value="INTEGER" style="shape=partialRectangle;html=1;connectable=0;strokeColor=inherit;overflow=hidden;fillColor=none;top=0;left=0;bottom=0;right=0;pointerEvents=1;fontSize=16;align=left;fontColor=#000000;" parent="Sy6wfYp_tRHCGX6oZVIA-170" vertex="1">
          <mxGeometry x="68" width="80" height="20" as="geometry">
            <mxRectangle width="80" height="20" as="alternateBounds" />
          </mxGeometry>
        </mxCell>
        <mxCell id="Sy6wfYp_tRHCGX6oZVIA-173" value="NOT NULL" style="shape=partialRectangle;html=1;connectable=0;strokeColor=inherit;overflow=hidden;fillColor=none;top=0;left=0;bottom=0;right=0;pointerEvents=1;fontSize=16;align=left;fontColor=#000000;" parent="Sy6wfYp_tRHCGX6oZVIA-170" vertex="1">
          <mxGeometry x="148" width="162" height="20" as="geometry">
            <mxRectangle width="162" height="20" as="alternateBounds" />
          </mxGeometry>
        </mxCell>
        <mxCell id="Sy6wfYp_tRHCGX6oZVIA-174" value="inc any time recChg OR docAddRmv (!rename)" style="shape=partialRectangle;html=1;connectable=0;strokeColor=inherit;overflow=hidden;fillColor=none;top=0;left=0;bottom=0;right=0;pointerEvents=1;fontSize=16;align=left;fontColor=#000000;" parent="Sy6wfYp_tRHCGX6oZVIA-170" vertex="1">
          <mxGeometry x="310" width="360" height="20" as="geometry">
            <mxRectangle width="360" height="20" as="alternateBounds" />
          </mxGeometry>
        </mxCell>
        <mxCell id="Sy6wfYp_tRHCGX6oZVIA-184" style="edgeStyle=orthogonalEdgeStyle;rounded=1;orthogonalLoop=1;jettySize=auto;html=1;exitX=1;exitY=0.5;exitDx=0;exitDy=0;entryX=1;entryY=0.5;entryDx=0;entryDy=0;startArrow=none;startFill=0;endArrow=ERmany;endFill=0;curved=0;" parent="Sy6wfYp_tRHCGX6oZVIA-83" source="Sy6wfYp_tRHCGX6oZVIA-89" target="Sy6wfYp_tRHCGX6oZVIA-99" edge="1">
          <mxGeometry relative="1" as="geometry">
            <mxPoint x="1038" y="220" as="sourcePoint" />
            <mxPoint x="888" y="400" as="targetPoint" />
          </mxGeometry>
        </mxCell>
        <mxCell id="Sy6wfYp_tRHCGX6oZVIA-111" value="initial values" style="shape=table;startSize=30;container=1;collapsible=0;childLayout=tableLayout;strokeColor=#6c8ebf;fontSize=16;align=center;fillColor=#dae8fc;" parent="1" vertex="1">
          <mxGeometry x="720" y="40" width="520" height="130" as="geometry" />
        </mxCell>
        <mxCell id="Sy6wfYp_tRHCGX6oZVIA-127" style="shape=tableRow;horizontal=0;startSize=0;swimlaneHead=0;swimlaneBody=0;strokeColor=inherit;top=0;left=0;bottom=0;right=0;collapsible=0;dropTarget=0;fillColor=none;points=[[0,0.5],[1,0.5]];portConstraint=eastwest;fontSize=16;align=left;" parent="Sy6wfYp_tRHCGX6oZVIA-111" vertex="1">
          <mxGeometry y="30" width="520" height="20" as="geometry" />
        </mxCell>
        <mxCell id="Sy6wfYp_tRHCGX6oZVIA-128" value="id" style="shape=partialRectangle;html=1;connectable=0;strokeColor=#6c8ebf;overflow=hidden;fillColor=#dae8fc;top=0;left=0;bottom=0;right=0;pointerEvents=1;fontSize=16;align=left;" parent="Sy6wfYp_tRHCGX6oZVIA-127" vertex="1">
          <mxGeometry width="53" height="20" as="geometry">
            <mxRectangle width="53" height="20" as="alternateBounds" />
          </mxGeometry>
        </mxCell>
        <mxCell id="Sy6wfYp_tRHCGX6oZVIA-129" value="key" style="shape=partialRectangle;html=1;connectable=0;strokeColor=#6c8ebf;overflow=hidden;fillColor=#dae8fc;top=0;left=0;bottom=0;right=0;pointerEvents=1;fontSize=16;align=left;" parent="Sy6wfYp_tRHCGX6oZVIA-127" vertex="1">
          <mxGeometry x="53" width="77" height="20" as="geometry">
            <mxRectangle width="77" height="20" as="alternateBounds" />
          </mxGeometry>
        </mxCell>
        <mxCell id="Sy6wfYp_tRHCGX6oZVIA-130" value="value" style="shape=partialRectangle;html=1;connectable=0;strokeColor=#6c8ebf;overflow=hidden;fillColor=#dae8fc;top=0;left=0;bottom=0;right=0;pointerEvents=1;fontSize=16;align=left;" parent="Sy6wfYp_tRHCGX6oZVIA-127" vertex="1">
          <mxGeometry x="130" width="50" height="20" as="geometry">
            <mxRectangle width="50" height="20" as="alternateBounds" />
          </mxGeometry>
        </mxCell>
        <mxCell id="Sy6wfYp_tRHCGX6oZVIA-131" style="shape=partialRectangle;html=1;connectable=0;strokeColor=#6c8ebf;overflow=hidden;fillColor=#dae8fc;top=0;left=0;bottom=0;right=0;pointerEvents=1;fontSize=16;align=left;" parent="Sy6wfYp_tRHCGX6oZVIA-127" vertex="1">
          <mxGeometry x="180" width="340" height="20" as="geometry">
            <mxRectangle width="340" height="20" as="alternateBounds" />
          </mxGeometry>
        </mxCell>
        <mxCell id="Sy6wfYp_tRHCGX6oZVIA-117" value="" style="shape=tableRow;horizontal=0;startSize=0;swimlaneHead=0;swimlaneBody=0;strokeColor=inherit;top=0;left=0;bottom=0;right=0;collapsible=0;dropTarget=0;fillColor=none;points=[[0,0.5],[1,0.5]];portConstraint=eastwest;fontSize=16;align=left;" parent="Sy6wfYp_tRHCGX6oZVIA-111" vertex="1">
          <mxGeometry y="50" width="520" height="40" as="geometry" />
        </mxCell>
        <mxCell id="Sy6wfYp_tRHCGX6oZVIA-118" value="1" style="shape=partialRectangle;html=1;connectable=0;strokeColor=#6c8ebf;overflow=hidden;fillColor=#dae8fc;top=0;left=0;bottom=0;right=0;pointerEvents=1;fontSize=16;align=left;" parent="Sy6wfYp_tRHCGX6oZVIA-117" vertex="1">
          <mxGeometry width="53" height="40" as="geometry">
            <mxRectangle width="53" height="40" as="alternateBounds" />
          </mxGeometry>
        </mxCell>
        <mxCell id="Sy6wfYp_tRHCGX6oZVIA-119" value="dbVersion" style="shape=partialRectangle;html=1;connectable=0;strokeColor=#6c8ebf;overflow=hidden;fillColor=#dae8fc;top=0;left=0;bottom=0;right=0;pointerEvents=1;fontSize=16;align=left;" parent="Sy6wfYp_tRHCGX6oZVIA-117" vertex="1">
          <mxGeometry x="53" width="77" height="40" as="geometry">
            <mxRectangle width="77" height="40" as="alternateBounds" />
          </mxGeometry>
        </mxCell>
        <mxCell id="Sy6wfYp_tRHCGX6oZVIA-120" value="7" style="shape=partialRectangle;html=1;connectable=0;strokeColor=#6c8ebf;overflow=hidden;fillColor=#dae8fc;top=0;left=0;bottom=0;right=0;pointerEvents=1;fontSize=16;align=left;" parent="Sy6wfYp_tRHCGX6oZVIA-117" vertex="1">
          <mxGeometry x="130" width="50" height="40" as="geometry">
            <mxRectangle width="50" height="40" as="alternateBounds" />
          </mxGeometry>
        </mxCell>
        <mxCell id="Sy6wfYp_tRHCGX6oZVIA-121" value="each upgrade increases this number by 1,&amp;nbsp; it is&amp;nbsp;&lt;span style=&quot;background-color: transparent; color: light-dark(rgb(0, 0, 0), rgb(255, 255, 255));&quot;&gt;not the same as doc or software version&lt;/span&gt;&lt;div&gt;&lt;br&gt;&lt;/div&gt;" style="shape=partialRectangle;html=1;connectable=0;strokeColor=#6c8ebf;overflow=hidden;fillColor=#dae8fc;top=0;left=0;bottom=0;right=0;pointerEvents=1;fontSize=16;align=left;whiteSpace=wrap;" parent="Sy6wfYp_tRHCGX6oZVIA-117" vertex="1">
          <mxGeometry x="180" width="340" height="40" as="geometry">
            <mxRectangle width="340" height="40" as="alternateBounds" />
          </mxGeometry>
        </mxCell>
        <mxCell id="-N10hWzUFT1irTYi3381-6" style="shape=tableRow;horizontal=0;startSize=0;swimlaneHead=0;swimlaneBody=0;strokeColor=inherit;top=0;left=0;bottom=0;right=0;collapsible=0;dropTarget=0;fillColor=none;points=[[0,0.5],[1,0.5]];portConstraint=eastwest;fontSize=16;align=left;" parent="Sy6wfYp_tRHCGX6oZVIA-111" vertex="1">
          <mxGeometry y="90" width="520" height="40" as="geometry" />
        </mxCell>
        <mxCell id="-N10hWzUFT1irTYi3381-7" value="2" style="shape=partialRectangle;html=1;connectable=0;strokeColor=#6c8ebf;overflow=hidden;fillColor=#dae8fc;top=0;left=0;bottom=0;right=0;pointerEvents=1;fontSize=16;align=left;" parent="-N10hWzUFT1irTYi3381-6" vertex="1">
          <mxGeometry width="53" height="40" as="geometry">
            <mxRectangle width="53" height="40" as="alternateBounds" />
          </mxGeometry>
        </mxCell>
        <mxCell id="-N10hWzUFT1irTYi3381-8" value="bump" style="shape=partialRectangle;html=1;connectable=0;strokeColor=#6c8ebf;overflow=hidden;fillColor=#dae8fc;top=0;left=0;bottom=0;right=0;pointerEvents=1;fontSize=16;align=left;" parent="-N10hWzUFT1irTYi3381-6" vertex="1">
          <mxGeometry x="53" width="77" height="40" as="geometry">
            <mxRectangle width="77" height="40" as="alternateBounds" />
          </mxGeometry>
        </mxCell>
        <mxCell id="-N10hWzUFT1irTYi3381-9" value="0" style="shape=partialRectangle;html=1;connectable=0;strokeColor=#6c8ebf;overflow=hidden;fillColor=#dae8fc;top=0;left=0;bottom=0;right=0;pointerEvents=1;fontSize=16;align=left;" parent="-N10hWzUFT1irTYi3381-6" vertex="1">
          <mxGeometry x="130" width="50" height="40" as="geometry">
            <mxRectangle width="50" height="40" as="alternateBounds" />
          </mxGeometry>
        </mxCell>
        <mxCell id="-N10hWzUFT1irTYi3381-10" value="unused as of yet" style="shape=partialRectangle;html=1;connectable=0;strokeColor=#6c8ebf;overflow=hidden;fillColor=#dae8fc;top=0;left=0;bottom=0;right=0;pointerEvents=1;fontSize=16;align=left;whiteSpace=wrap;" parent="-N10hWzUFT1irTYi3381-6" vertex="1">
          <mxGeometry x="180" width="340" height="40" as="geometry">
            <mxRectangle width="340" height="40" as="alternateBounds" />
          </mxGeometry>
        </mxCell>
        <mxCell id="Sy6wfYp_tRHCGX6oZVIA-139" value="dch (individual dch content inside a doc) (*new table*)" style="shape=table;startSize=30;container=1;collapsible=0;childLayout=tableLayout;strokeColor=default;fontSize=16;align=center;fontColor=#000000;" parent="1" vertex="1">
          <mxGeometry y="650" width="680" height="150" as="geometry" />
        </mxCell>
        <mxCell id="Sy6wfYp_tRHCGX6oZVIA-140" value="" style="shape=tableRow;horizontal=0;startSize=0;swimlaneHead=0;swimlaneBody=0;strokeColor=inherit;top=0;left=0;bottom=0;right=0;collapsible=0;dropTarget=0;fillColor=none;points=[[0,0.5],[1,0.5]];portConstraint=eastwest;fontSize=16;align=left;" parent="Sy6wfYp_tRHCGX6oZVIA-139" vertex="1">
          <mxGeometry y="30" width="680" height="20" as="geometry" />
        </mxCell>
        <mxCell id="Sy6wfYp_tRHCGX6oZVIA-141" value="id" style="shape=partialRectangle;html=1;connectable=0;strokeColor=inherit;overflow=hidden;fillColor=none;top=0;left=0;bottom=0;right=0;pointerEvents=1;fontSize=16;text-align:right;align=left;" parent="Sy6wfYp_tRHCGX6oZVIA-140" vertex="1">
          <mxGeometry width="84" height="20" as="geometry">
            <mxRectangle width="84" height="20" as="alternateBounds" />
          </mxGeometry>
        </mxCell>
        <mxCell id="Sy6wfYp_tRHCGX6oZVIA-142" value="INTEGER" style="shape=partialRectangle;html=1;connectable=0;strokeColor=inherit;overflow=hidden;fillColor=none;top=0;left=0;bottom=0;right=0;pointerEvents=1;fontSize=16;align=left;" parent="Sy6wfYp_tRHCGX6oZVIA-140" vertex="1">
          <mxGeometry x="84" width="94" height="20" as="geometry">
            <mxRectangle width="94" height="20" as="alternateBounds" />
          </mxGeometry>
        </mxCell>
        <mxCell id="Sy6wfYp_tRHCGX6oZVIA-143" value="PRIMARY KEY AUTO" style="shape=partialRectangle;html=1;connectable=0;strokeColor=inherit;overflow=hidden;fillColor=none;top=0;left=0;bottom=0;right=0;pointerEvents=1;fontSize=16;align=left;" parent="Sy6wfYp_tRHCGX6oZVIA-140" vertex="1">
          <mxGeometry x="178" width="162" height="20" as="geometry">
            <mxRectangle width="162" height="20" as="alternateBounds" />
          </mxGeometry>
        </mxCell>
        <mxCell id="Sy6wfYp_tRHCGX6oZVIA-144" style="shape=partialRectangle;html=1;connectable=0;strokeColor=inherit;overflow=hidden;fillColor=none;top=0;left=0;bottom=0;right=0;pointerEvents=1;fontSize=16;align=left;" parent="Sy6wfYp_tRHCGX6oZVIA-140" vertex="1">
          <mxGeometry x="340" width="340" height="20" as="geometry">
            <mxRectangle width="340" height="20" as="alternateBounds" />
          </mxGeometry>
        </mxCell>
        <mxCell id="vqZlcED8u8-k37lUeLF1-4" style="shape=tableRow;horizontal=0;startSize=0;swimlaneHead=0;swimlaneBody=0;strokeColor=inherit;top=0;left=0;bottom=0;right=0;collapsible=0;dropTarget=0;fillColor=none;points=[[0,0.5],[1,0.5]];portConstraint=eastwest;fontSize=16;align=left;" parent="Sy6wfYp_tRHCGX6oZVIA-139" vertex="1">
          <mxGeometry y="50" width="680" height="20" as="geometry" />
        </mxCell>
        <mxCell id="vqZlcED8u8-k37lUeLF1-5" value="docId" style="shape=partialRectangle;html=1;connectable=0;strokeColor=inherit;overflow=hidden;fillColor=none;top=0;left=0;bottom=0;right=0;pointerEvents=1;fontSize=16;align=left;" parent="vqZlcED8u8-k37lUeLF1-4" vertex="1">
          <mxGeometry width="84" height="20" as="geometry">
            <mxRectangle width="84" height="20" as="alternateBounds" />
          </mxGeometry>
        </mxCell>
        <mxCell id="vqZlcED8u8-k37lUeLF1-6" value="INTEGER" style="shape=partialRectangle;html=1;connectable=0;strokeColor=inherit;overflow=hidden;fillColor=none;top=0;left=0;bottom=0;right=0;pointerEvents=1;fontSize=16;align=left;" parent="vqZlcED8u8-k37lUeLF1-4" vertex="1">
          <mxGeometry x="84" width="94" height="20" as="geometry">
            <mxRectangle width="94" height="20" as="alternateBounds" />
          </mxGeometry>
        </mxCell>
        <mxCell id="vqZlcED8u8-k37lUeLF1-7" value="NOT NULL" style="shape=partialRectangle;html=1;connectable=0;strokeColor=inherit;overflow=hidden;fillColor=none;top=0;left=0;bottom=0;right=0;pointerEvents=1;fontSize=16;align=left;" parent="vqZlcED8u8-k37lUeLF1-4" vertex="1">
          <mxGeometry x="178" width="162" height="20" as="geometry">
            <mxRectangle width="162" height="20" as="alternateBounds" />
          </mxGeometry>
        </mxCell>
        <mxCell id="vqZlcED8u8-k37lUeLF1-8" value="ref back to doc rec for &#39;SELECT ... WHERE&#39;" style="shape=partialRectangle;html=1;connectable=0;strokeColor=inherit;overflow=hidden;fillColor=none;top=0;left=0;bottom=0;right=0;pointerEvents=1;fontSize=16;align=left;" parent="vqZlcED8u8-k37lUeLF1-4" vertex="1">
          <mxGeometry x="340" width="340" height="20" as="geometry">
            <mxRectangle width="340" height="20" as="alternateBounds" />
          </mxGeometry>
        </mxCell>
        <mxCell id="l9uLVyRfMah0w7W8cOkY-4" style="shape=tableRow;horizontal=0;startSize=0;swimlaneHead=0;swimlaneBody=0;strokeColor=inherit;top=0;left=0;bottom=0;right=0;collapsible=0;dropTarget=0;fillColor=none;points=[[0,0.5],[1,0.5]];portConstraint=eastwest;fontSize=16;align=left;" vertex="1" parent="Sy6wfYp_tRHCGX6oZVIA-139">
          <mxGeometry y="70" width="680" height="20" as="geometry" />
        </mxCell>
        <mxCell id="l9uLVyRfMah0w7W8cOkY-5" value="name" style="shape=partialRectangle;html=1;connectable=0;strokeColor=inherit;overflow=hidden;fillColor=none;top=0;left=0;bottom=0;right=0;pointerEvents=1;fontSize=16;align=left;" vertex="1" parent="l9uLVyRfMah0w7W8cOkY-4">
          <mxGeometry width="84" height="20" as="geometry">
            <mxRectangle width="84" height="20" as="alternateBounds" />
          </mxGeometry>
        </mxCell>
        <mxCell id="l9uLVyRfMah0w7W8cOkY-6" value="text" style="shape=partialRectangle;html=1;connectable=0;strokeColor=inherit;overflow=hidden;fillColor=none;top=0;left=0;bottom=0;right=0;pointerEvents=1;fontSize=16;align=left;" vertex="1" parent="l9uLVyRfMah0w7W8cOkY-4">
          <mxGeometry x="84" width="94" height="20" as="geometry">
            <mxRectangle width="94" height="20" as="alternateBounds" />
          </mxGeometry>
        </mxCell>
        <mxCell id="l9uLVyRfMah0w7W8cOkY-7" value="NOT NULL" style="shape=partialRectangle;html=1;connectable=0;strokeColor=inherit;overflow=hidden;fillColor=none;top=0;left=0;bottom=0;right=0;pointerEvents=1;fontSize=16;align=left;" vertex="1" parent="l9uLVyRfMah0w7W8cOkY-4">
          <mxGeometry x="178" width="162" height="20" as="geometry">
            <mxRectangle width="162" height="20" as="alternateBounds" />
          </mxGeometry>
        </mxCell>
        <mxCell id="l9uLVyRfMah0w7W8cOkY-8" value="BOX,JLPAINT,etc..." style="shape=partialRectangle;html=1;connectable=0;strokeColor=inherit;overflow=hidden;fillColor=none;top=0;left=0;bottom=0;right=0;pointerEvents=1;fontSize=16;align=left;whiteSpace=wrap;" vertex="1" parent="l9uLVyRfMah0w7W8cOkY-4">
          <mxGeometry x="340" width="340" height="20" as="geometry">
            <mxRectangle width="340" height="20" as="alternateBounds" />
          </mxGeometry>
        </mxCell>
        <mxCell id="Sy6wfYp_tRHCGX6oZVIA-155" style="shape=tableRow;horizontal=0;startSize=0;swimlaneHead=0;swimlaneBody=0;strokeColor=inherit;top=0;left=0;bottom=0;right=0;collapsible=0;dropTarget=0;fillColor=none;points=[[0,0.5],[1,0.5]];portConstraint=eastwest;fontSize=16;align=left;" parent="Sy6wfYp_tRHCGX6oZVIA-139" vertex="1">
          <mxGeometry y="90" width="680" height="40" as="geometry" />
        </mxCell>
        <mxCell id="Sy6wfYp_tRHCGX6oZVIA-156" value="content" style="shape=partialRectangle;html=1;connectable=0;strokeColor=inherit;overflow=hidden;fillColor=none;top=0;left=0;bottom=0;right=0;pointerEvents=1;fontSize=16;align=left;" parent="Sy6wfYp_tRHCGX6oZVIA-155" vertex="1">
          <mxGeometry width="84" height="40" as="geometry">
            <mxRectangle width="84" height="40" as="alternateBounds" />
          </mxGeometry>
        </mxCell>
        <mxCell id="Sy6wfYp_tRHCGX6oZVIA-157" value="BLOB" style="shape=partialRectangle;html=1;connectable=0;strokeColor=inherit;overflow=hidden;fillColor=none;top=0;left=0;bottom=0;right=0;pointerEvents=1;fontSize=16;align=left;" parent="Sy6wfYp_tRHCGX6oZVIA-155" vertex="1">
          <mxGeometry x="84" width="94" height="40" as="geometry">
            <mxRectangle width="94" height="40" as="alternateBounds" />
          </mxGeometry>
        </mxCell>
        <mxCell id="Sy6wfYp_tRHCGX6oZVIA-158" value="NOT NULL" style="shape=partialRectangle;html=1;connectable=0;strokeColor=inherit;overflow=hidden;fillColor=none;top=0;left=0;bottom=0;right=0;pointerEvents=1;fontSize=16;align=left;" parent="Sy6wfYp_tRHCGX6oZVIA-155" vertex="1">
          <mxGeometry x="178" width="162" height="40" as="geometry">
            <mxRectangle width="162" height="40" as="alternateBounds" />
          </mxGeometry>
        </mxCell>
        <mxCell id="Sy6wfYp_tRHCGX6oZVIA-159" value="individual dch&#39;s entire content as a text string, b64encoded as required" style="shape=partialRectangle;html=1;connectable=0;strokeColor=inherit;overflow=hidden;fillColor=none;top=0;left=0;bottom=0;right=0;pointerEvents=1;fontSize=16;align=left;whiteSpace=wrap;" parent="Sy6wfYp_tRHCGX6oZVIA-155" vertex="1">
          <mxGeometry x="340" width="340" height="40" as="geometry">
            <mxRectangle width="340" height="40" as="alternateBounds" />
          </mxGeometry>
        </mxCell>
        <mxCell id="Sy6wfYp_tRHCGX6oZVIA-175" style="shape=tableRow;horizontal=0;startSize=0;swimlaneHead=0;swimlaneBody=0;strokeColor=inherit;top=0;left=0;bottom=0;right=0;collapsible=0;dropTarget=0;fillColor=none;points=[[0,0.5],[1,0.5]];portConstraint=eastwest;fontSize=16;align=left;" parent="Sy6wfYp_tRHCGX6oZVIA-139" vertex="1">
          <mxGeometry y="130" width="680" height="20" as="geometry" />
        </mxCell>
        <mxCell id="Sy6wfYp_tRHCGX6oZVIA-176" value="bump" style="shape=partialRectangle;html=1;connectable=0;strokeColor=inherit;overflow=hidden;fillColor=none;top=0;left=0;bottom=0;right=0;pointerEvents=1;fontSize=16;align=left;fontColor=#000000;" parent="Sy6wfYp_tRHCGX6oZVIA-175" vertex="1">
          <mxGeometry width="84" height="20" as="geometry">
            <mxRectangle width="84" height="20" as="alternateBounds" />
          </mxGeometry>
        </mxCell>
        <mxCell id="Sy6wfYp_tRHCGX6oZVIA-177" value="INTEGER" style="shape=partialRectangle;html=1;connectable=0;strokeColor=inherit;overflow=hidden;fillColor=none;top=0;left=0;bottom=0;right=0;pointerEvents=1;fontSize=16;align=left;fontColor=#000000;" parent="Sy6wfYp_tRHCGX6oZVIA-175" vertex="1">
          <mxGeometry x="84" width="94" height="20" as="geometry">
            <mxRectangle width="94" height="20" as="alternateBounds" />
          </mxGeometry>
        </mxCell>
        <mxCell id="Sy6wfYp_tRHCGX6oZVIA-178" value="NOT NULL" style="shape=partialRectangle;html=1;connectable=0;strokeColor=inherit;overflow=hidden;fillColor=none;top=0;left=0;bottom=0;right=0;pointerEvents=1;fontSize=16;align=left;fontColor=#000000;" parent="Sy6wfYp_tRHCGX6oZVIA-175" vertex="1">
          <mxGeometry x="178" width="162" height="20" as="geometry">
            <mxRectangle width="162" height="20" as="alternateBounds" />
          </mxGeometry>
        </mxCell>
        <mxCell id="Sy6wfYp_tRHCGX6oZVIA-179" value="&lt;b&gt;when this bumps, doc must bump too!&lt;/b&gt;" style="shape=partialRectangle;html=1;connectable=0;strokeColor=inherit;overflow=hidden;fillColor=none;top=0;left=0;bottom=0;right=0;pointerEvents=1;fontSize=16;align=left;fontColor=#000000;" parent="Sy6wfYp_tRHCGX6oZVIA-175" vertex="1">
          <mxGeometry x="340" width="340" height="20" as="geometry">
            <mxRectangle width="340" height="20" as="alternateBounds" />
          </mxGeometry>
        </mxCell>
        <mxCell id="Sy6wfYp_tRHCGX6oZVIA-182" style="edgeStyle=orthogonalEdgeStyle;rounded=1;orthogonalLoop=1;jettySize=auto;html=1;exitX=1;exitY=0.5;exitDx=0;exitDy=0;entryX=1;entryY=0.5;entryDx=0;entryDy=0;startArrow=none;startFill=0;endArrow=ERmany;endFill=0;curved=0;" parent="1" source="Sy6wfYp_tRHCGX6oZVIA-68" edge="1">
          <mxGeometry relative="1" as="geometry">
            <Array as="points">
              <mxPoint x="780" y="455" />
              <mxPoint x="780" y="670" />
            </Array>
          </mxGeometry>
        </mxCell>
        <mxCell id="Sy6wfYp_tRHCGX6oZVIA-183" style="edgeStyle=orthogonalEdgeStyle;rounded=1;orthogonalLoop=1;jettySize=auto;html=1;exitX=1;exitY=0.5;exitDx=0;exitDy=0;entryX=1;entryY=0.5;entryDx=0;entryDy=0;startArrow=none;startFill=0;endArrow=none;endFill=0;curved=0;" parent="1" source="Sy6wfYp_tRHCGX6oZVIA-68" target="Sy6wfYp_tRHCGX6oZVIA-89" edge="1">
          <mxGeometry relative="1" as="geometry">
            <mxPoint x="1000" y="460" as="sourcePoint" />
            <mxPoint x="850" y="640" as="targetPoint" />
            <Array as="points">
              <mxPoint x="720" y="473" />
              <mxPoint x="720" y="250" />
            </Array>
          </mxGeometry>
        </mxCell>
        <mxCell id="-N10hWzUFT1irTYi3381-34" style="edgeStyle=orthogonalEdgeStyle;rounded=1;orthogonalLoop=1;jettySize=auto;html=1;exitX=1;exitY=0.5;exitDx=0;exitDy=0;entryX=1;entryY=0.5;entryDx=0;entryDy=0;startArrow=none;startFill=0;endArrow=ERmany;endFill=0;curved=0;" parent="1" source="-N10hWzUFT1irTYi3381-29" target="Sy6wfYp_tRHCGX6oZVIA-140" edge="1">
          <mxGeometry relative="1" as="geometry">
            <mxPoint x="690" y="505" as="sourcePoint" />
            <mxPoint x="690" y="720" as="targetPoint" />
            <Array as="points">
              <mxPoint x="720" y="540" />
              <mxPoint x="720" y="690" />
            </Array>
          </mxGeometry>
        </mxCell>
        <mxCell id="vqZlcED8u8-k37lUeLF1-1" value="" style="shape=table;startSize=0;container=1;collapsible=0;childLayout=tableLayout;" parent="1" vertex="1">
          <mxGeometry x="800" y="190" width="400" height="100" as="geometry" />
        </mxCell>
        <mxCell id="vqZlcED8u8-k37lUeLF1-2" value="" style="shape=tableRow;horizontal=0;startSize=0;swimlaneHead=0;swimlaneBody=0;strokeColor=inherit;top=0;left=0;bottom=0;right=0;collapsible=0;dropTarget=0;fillColor=none;points=[[0,0.5],[1,0.5]];portConstraint=eastwest;" parent="vqZlcED8u8-k37lUeLF1-1" vertex="1">
          <mxGeometry width="400" height="100" as="geometry" />
        </mxCell>
        <mxCell id="vqZlcED8u8-k37lUeLF1-3" value="&lt;span style=&quot;color: rgb(0, 0, 0); font-family: Helvetica; font-size: 12px; font-style: normal; font-variant-ligatures: normal; font-variant-caps: normal; font-weight: 400; letter-spacing: normal; orphans: 2; text-indent: 0px; text-transform: none; widows: 2; word-spacing: 0px; -webkit-text-stroke-width: 0px; white-space: normal; background-color: rgb(236, 236, 236); text-decoration-thickness: initial; text-decoration-style: initial; text-decoration-color: initial; float: none; display: inline !important;&quot;&gt;INTERIM step, only cloning data for now as we work through the update&lt;/span&gt;&lt;div&gt;&lt;span style=&quot;color: rgb(0, 0, 0); font-family: Helvetica; font-size: 12px; font-style: normal; font-variant-ligatures: normal; font-variant-caps: normal; font-weight: 400; letter-spacing: normal; orphans: 2; text-indent: 0px; text-transform: none; widows: 2; word-spacing: 0px; -webkit-text-stroke-width: 0px; white-space: normal; background-color: rgb(236, 236, 236); text-decoration-thickness: initial; text-decoration-style: initial; text-decoration-color: initial; float: none; display: inline !important;&quot;&gt;1) create table &#39;dch&#39;&lt;/span&gt;&lt;div&gt;2) add doc.dchList and doc.bump&lt;/div&gt;&lt;div&gt;3) keep using content AS IS storing whole doc as a single blob&lt;br&gt;&lt;div style=&quot;forced-color-adjust: none; color: rgb(0, 0, 0); font-family: Helvetica; font-size: 12px; font-style: normal; font-variant-ligatures: normal; font-variant-caps: normal; font-weight: 400; letter-spacing: normal; orphans: 2; text-indent: 0px; text-transform: none; widows: 2; word-spacing: 0px; -webkit-text-stroke-width: 0px; white-space: normal; background-color: rgb(236, 236, 236); text-decoration-thickness: initial; text-decoration-style: initial; text-decoration-color: initial;&quot;&gt;3) ALSO break doc.content into components --&amp;gt; dch.children+dch.content&lt;br style=&quot;forced-color-adjust: none;&quot;&gt;&lt;div style=&quot;forced-color-adjust: none;&quot;&gt;4) test &#39;new&#39; method works flawlessly&lt;/div&gt;&lt;div style=&quot;forced-color-adjust: none;&quot;&gt;5) THEN remove doc.content column&lt;/div&gt;&lt;/div&gt;&lt;/div&gt;&lt;/div&gt;" style="shape=partialRectangle;html=1;whiteSpace=wrap;connectable=0;strokeColor=inherit;overflow=hidden;fillColor=none;top=0;left=0;bottom=0;right=0;pointerEvents=1;align=left;" parent="vqZlcED8u8-k37lUeLF1-2" vertex="1">
          <mxGeometry width="400" height="100" as="geometry">
            <mxRectangle width="400" height="100" as="alternateBounds" />
          </mxGeometry>
        </mxCell>
        <mxCell id="Dv7WrGuHsf_Se-FQWXXA-1" value="" style="shape=table;startSize=0;container=1;collapsible=0;childLayout=tableLayout;" parent="1" vertex="1">
          <mxGeometry x="752" y="766" width="400" height="100" as="geometry" />
        </mxCell>
        <mxCell id="Dv7WrGuHsf_Se-FQWXXA-2" value="" style="shape=tableRow;horizontal=0;startSize=0;swimlaneHead=0;swimlaneBody=0;strokeColor=inherit;top=0;left=0;bottom=0;right=0;collapsible=0;dropTarget=0;fillColor=none;points=[[0,0.5],[1,0.5]];portConstraint=eastwest;" parent="Dv7WrGuHsf_Se-FQWXXA-1" vertex="1">
          <mxGeometry width="400" height="100" as="geometry" />
        </mxCell>
        <mxCell id="Dv7WrGuHsf_Se-FQWXXA-3" value="dch bump must be equal to doc.bump +1 at time of dch bumping, meaning when a dch is written, increment doc.bump and then use that bumpval in dch.bump.&lt;div&gt;This lets us say &#39;if doc bumped,&amp;nbsp; ask db to fetch any dch&#39;s whos bumpnum &amp;gt; our old pre-bump doc.bump val&#39;&lt;/div&gt;" style="shape=partialRectangle;html=1;whiteSpace=wrap;connectable=0;strokeColor=inherit;overflow=hidden;fillColor=none;top=0;left=0;bottom=0;right=0;pointerEvents=1;align=left;" parent="Dv7WrGuHsf_Se-FQWXXA-2" vertex="1">
          <mxGeometry width="400" height="100" as="geometry">
            <mxRectangle width="400" height="100" as="alternateBounds" />
          </mxGeometry>
        </mxCell>
        <mxCell id="Dv7WrGuHsf_Se-FQWXXA-4" value="" style="shape=table;startSize=0;container=1;collapsible=0;childLayout=tableLayout;" parent="1" vertex="1">
          <mxGeometry x="780" y="500" width="539" height="140" as="geometry" />
        </mxCell>
        <mxCell id="Dv7WrGuHsf_Se-FQWXXA-5" value="" style="shape=tableRow;horizontal=0;startSize=0;swimlaneHead=0;swimlaneBody=0;strokeColor=inherit;top=0;left=0;bottom=0;right=0;collapsible=0;dropTarget=0;fillColor=none;points=[[0,0.5],[1,0.5]];portConstraint=eastwest;" parent="Dv7WrGuHsf_Se-FQWXXA-4" vertex="1">
          <mxGeometry width="539" height="140" as="geometry" />
        </mxCell>
        <mxCell id="Dv7WrGuHsf_Se-FQWXXA-6" value="&lt;font style=&quot;font-size: 11px;&quot; face=&quot;Courier New&quot;&gt;doc.dchList = [&amp;nbsp; // an ordered list of [k,v] tuples&lt;/font&gt;&lt;div&gt;&lt;font style=&quot;font-size: 11px;&quot; face=&quot;Courier New&quot;&gt;&lt;span style=&quot;background-color: transparent; color: light-dark(rgb(0, 0, 0), rgb(255, 255, 255));&quot;&gt;&amp;nbsp; &amp;nbsp; [&amp;nbsp;&lt;/span&gt;&lt;span style=&quot;background-color: transparent; color: light-dark(rgb(0, 0, 0), rgb(255, 255, 255));&quot;&gt;dch.id,&amp;nbsp;&lt;/span&gt;&lt;span style=&quot;background-color: transparent; color: light-dark(rgb(0, 0, 0), rgb(255, 255, 255));&quot;&gt;{&lt;/span&gt;&lt;/font&gt;&lt;/div&gt;&lt;div&gt;&lt;font style=&quot;font-size: 11px;&quot; face=&quot;Courier New&quot;&gt;&lt;span style=&quot;background-color: transparent; color: light-dark(rgb(0, 0, 0), rgb(255, 255, 255));&quot;&gt;&amp;nbsp; &amp;nbsp; &amp;nbsp; &amp;nbsp; S: dcw.style for dchWrapper&amp;nbsp;&lt;/span&gt;{L:0,W:0,R:0,&lt;span style=&quot;color: light-dark(rgb(0, 0, 0), rgb(255, 255, 255)); background-color: transparent;&quot;&gt;T:0,H:0,B:0,Z:0}&lt;/span&gt;&lt;br&gt;&lt;span style=&quot;background-color: transparent; color: light-dark(rgb(0, 0, 0), rgb(255, 255, 255));&quot;&gt;&amp;nbsp; &amp;nbsp; &amp;nbsp; &amp;nbsp; C: # of dcw&#39;s that follow that belong to this dcw as its children&lt;/span&gt;&lt;br&gt;&lt;/font&gt;&lt;div&gt;&lt;font style=&quot;font-size: 11px;&quot; face=&quot;Courier New&quot;&gt;&amp;nbsp; &amp;nbsp; }],&lt;/font&gt;&lt;/div&gt;&lt;div&gt;&lt;font style=&quot;font-size: 11px;&quot; face=&quot;Courier New&quot;&gt;]&lt;/font&gt;&lt;/div&gt;&lt;/div&gt;&lt;div&gt;&lt;font style=&quot;font-size: 11px;&quot; face=&quot;Courier New&quot;&gt;Note that at present, C: is always 0 if dch is not a BOX&lt;/font&gt;&lt;/div&gt;" style="shape=partialRectangle;html=1;whiteSpace=wrap;connectable=0;strokeColor=inherit;overflow=hidden;fillColor=none;top=0;left=0;bottom=0;right=0;pointerEvents=1;align=left;" parent="Dv7WrGuHsf_Se-FQWXXA-5" vertex="1">
          <mxGeometry width="539" height="140" as="geometry">
            <mxRectangle width="539" height="140" as="alternateBounds" />
          </mxGeometry>
        </mxCell>
        <mxCell id="Dv7WrGuHsf_Se-FQWXXA-7" value="" style="shape=flexArrow;endArrow=classic;html=1;rounded=0;exitX=0.005;exitY=0.4;exitDx=0;exitDy=0;exitPerimeter=0;" parent="1" edge="1">
          <mxGeometry width="50" height="50" relative="1" as="geometry">
            <mxPoint x="752" y="790" as="sourcePoint" />
            <mxPoint x="680" y="790" as="targetPoint" />
          </mxGeometry>
        </mxCell>
        <mxCell id="Dv7WrGuHsf_Se-FQWXXA-8" value="" style="shape=flexArrow;endArrow=classic;html=1;rounded=0;exitX=0.003;exitY=0.4;exitDx=0;exitDy=0;exitPerimeter=0;entryX=1;entryY=0.5;entryDx=0;entryDy=0;" parent="1" edge="1" target="-N10hWzUFT1irTYi3381-29">
          <mxGeometry width="50" height="50" relative="1" as="geometry">
            <mxPoint x="781" y="542" as="sourcePoint" />
            <mxPoint x="720" y="542" as="targetPoint" />
          </mxGeometry>
        </mxCell>
        <mxCell id="l9uLVyRfMah0w7W8cOkY-1" value="" style="shape=table;startSize=0;container=1;collapsible=0;childLayout=tableLayout;" vertex="1" parent="1">
          <mxGeometry x="790" y="350" width="400" height="100" as="geometry" />
        </mxCell>
        <mxCell id="l9uLVyRfMah0w7W8cOkY-2" value="" style="shape=tableRow;horizontal=0;startSize=0;swimlaneHead=0;swimlaneBody=0;strokeColor=inherit;top=0;left=0;bottom=0;right=0;collapsible=0;dropTarget=0;fillColor=none;points=[[0,0.5],[1,0.5]];portConstraint=eastwest;" vertex="1" parent="l9uLVyRfMah0w7W8cOkY-1">
          <mxGeometry width="400" height="100" as="geometry" />
        </mxCell>
        <mxCell id="l9uLVyRfMah0w7W8cOkY-3" value="WIP!&amp;nbsp; (when done,&amp;nbsp; doc.content as a field will be removed)" style="shape=partialRectangle;html=1;whiteSpace=wrap;connectable=0;strokeColor=inherit;overflow=hidden;fillColor=none;top=0;left=0;bottom=0;right=0;pointerEvents=1;align=left;" vertex="1" parent="l9uLVyRfMah0w7W8cOkY-2">
          <mxGeometry width="400" height="100" as="geometry">
            <mxRectangle width="400" height="100" as="alternateBounds" />
          </mxGeometry>
        </mxCell>
        <mxCell id="l9uLVyRfMah0w7W8cOkY-9" value="delta" style="shape=table;startSize=30;container=1;collapsible=0;childLayout=tableLayout;strokeColor=default;fontSize=16;align=center;fontColor=#000000;" vertex="1" parent="1">
          <mxGeometry x="-10" y="866" width="680" height="226" as="geometry" />
        </mxCell>
        <mxCell id="l9uLVyRfMah0w7W8cOkY-10" value="" style="shape=tableRow;horizontal=0;startSize=0;swimlaneHead=0;swimlaneBody=0;strokeColor=inherit;top=0;left=0;bottom=0;right=0;collapsible=0;dropTarget=0;fillColor=none;points=[[0,0.5],[1,0.5]];portConstraint=eastwest;fontSize=16;align=left;" vertex="1" parent="l9uLVyRfMah0w7W8cOkY-9">
          <mxGeometry y="30" width="680" height="20" as="geometry" />
        </mxCell>
        <mxCell id="l9uLVyRfMah0w7W8cOkY-11" value="id" style="shape=partialRectangle;html=1;connectable=0;strokeColor=inherit;overflow=hidden;fillColor=none;top=0;left=0;bottom=0;right=0;pointerEvents=1;fontSize=16;text-align:right;align=left;" vertex="1" parent="l9uLVyRfMah0w7W8cOkY-10">
          <mxGeometry width="84" height="20" as="geometry">
            <mxRectangle width="84" height="20" as="alternateBounds" />
          </mxGeometry>
        </mxCell>
        <mxCell id="l9uLVyRfMah0w7W8cOkY-12" value="INTEGER" style="shape=partialRectangle;html=1;connectable=0;strokeColor=inherit;overflow=hidden;fillColor=none;top=0;left=0;bottom=0;right=0;pointerEvents=1;fontSize=16;align=left;" vertex="1" parent="l9uLVyRfMah0w7W8cOkY-10">
          <mxGeometry x="84" width="94" height="20" as="geometry">
            <mxRectangle width="94" height="20" as="alternateBounds" />
          </mxGeometry>
        </mxCell>
        <mxCell id="l9uLVyRfMah0w7W8cOkY-13" value="PRIMARY KEY AUTO" style="shape=partialRectangle;html=1;connectable=0;strokeColor=inherit;overflow=hidden;fillColor=none;top=0;left=0;bottom=0;right=0;pointerEvents=1;fontSize=16;align=left;" vertex="1" parent="l9uLVyRfMah0w7W8cOkY-10">
          <mxGeometry x="178" width="162" height="20" as="geometry">
            <mxRectangle width="162" height="20" as="alternateBounds" />
          </mxGeometry>
        </mxCell>
        <mxCell id="l9uLVyRfMah0w7W8cOkY-14" value="doubles as&amp;nbsp;&lt;span style=&quot;background-color: transparent; color: light-dark(rgb(0, 0, 0), rgb(255, 255, 255));&quot;&gt;order of undo/redo&lt;/span&gt;" style="shape=partialRectangle;html=1;connectable=0;strokeColor=inherit;overflow=hidden;fillColor=none;top=0;left=0;bottom=0;right=0;pointerEvents=1;fontSize=16;align=left;" vertex="1" parent="l9uLVyRfMah0w7W8cOkY-10">
          <mxGeometry x="340" width="340" height="20" as="geometry">
            <mxRectangle width="340" height="20" as="alternateBounds" />
          </mxGeometry>
        </mxCell>
        <mxCell id="l9uLVyRfMah0w7W8cOkY-15" style="shape=tableRow;horizontal=0;startSize=0;swimlaneHead=0;swimlaneBody=0;strokeColor=inherit;top=0;left=0;bottom=0;right=0;collapsible=0;dropTarget=0;fillColor=none;points=[[0,0.5],[1,0.5]];portConstraint=eastwest;fontSize=16;align=left;" vertex="1" parent="l9uLVyRfMah0w7W8cOkY-9">
          <mxGeometry y="50" width="680" height="24" as="geometry" />
        </mxCell>
        <mxCell id="l9uLVyRfMah0w7W8cOkY-16" value="table" style="shape=partialRectangle;html=1;connectable=0;strokeColor=inherit;overflow=hidden;fillColor=none;top=0;left=0;bottom=0;right=0;pointerEvents=1;fontSize=16;align=left;" vertex="1" parent="l9uLVyRfMah0w7W8cOkY-15">
          <mxGeometry width="84" height="24" as="geometry">
            <mxRectangle width="84" height="24" as="alternateBounds" />
          </mxGeometry>
        </mxCell>
        <mxCell id="l9uLVyRfMah0w7W8cOkY-17" value="text" style="shape=partialRectangle;html=1;connectable=0;strokeColor=inherit;overflow=hidden;fillColor=none;top=0;left=0;bottom=0;right=0;pointerEvents=1;fontSize=16;align=left;" vertex="1" parent="l9uLVyRfMah0w7W8cOkY-15">
          <mxGeometry x="84" width="94" height="24" as="geometry">
            <mxRectangle width="94" height="24" as="alternateBounds" />
          </mxGeometry>
        </mxCell>
        <mxCell id="l9uLVyRfMah0w7W8cOkY-18" value="NOT NULL" style="shape=partialRectangle;html=1;connectable=0;strokeColor=inherit;overflow=hidden;fillColor=none;top=0;left=0;bottom=0;right=0;pointerEvents=1;fontSize=16;align=left;" vertex="1" parent="l9uLVyRfMah0w7W8cOkY-15">
          <mxGeometry x="178" width="162" height="24" as="geometry">
            <mxRectangle width="162" height="24" as="alternateBounds" />
          </mxGeometry>
        </mxCell>
        <mxCell id="l9uLVyRfMah0w7W8cOkY-19" value="name of table this affects" style="shape=partialRectangle;html=1;connectable=0;strokeColor=inherit;overflow=hidden;fillColor=none;top=0;left=0;bottom=0;right=0;pointerEvents=1;fontSize=16;align=left;" vertex="1" parent="l9uLVyRfMah0w7W8cOkY-15">
          <mxGeometry x="340" width="340" height="24" as="geometry">
            <mxRectangle width="340" height="24" as="alternateBounds" />
          </mxGeometry>
        </mxCell>
        <mxCell id="l9uLVyRfMah0w7W8cOkY-40" style="shape=tableRow;horizontal=0;startSize=0;swimlaneHead=0;swimlaneBody=0;strokeColor=inherit;top=0;left=0;bottom=0;right=0;collapsible=0;dropTarget=0;fillColor=none;points=[[0,0.5],[1,0.5]];portConstraint=eastwest;fontSize=16;align=left;" vertex="1" parent="l9uLVyRfMah0w7W8cOkY-9">
          <mxGeometry y="74" width="680" height="24" as="geometry" />
        </mxCell>
        <mxCell id="l9uLVyRfMah0w7W8cOkY-41" value="recId" style="shape=partialRectangle;html=1;connectable=0;strokeColor=inherit;overflow=hidden;fillColor=none;top=0;left=0;bottom=0;right=0;pointerEvents=1;fontSize=16;align=left;" vertex="1" parent="l9uLVyRfMah0w7W8cOkY-40">
          <mxGeometry width="84" height="24" as="geometry">
            <mxRectangle width="84" height="24" as="alternateBounds" />
          </mxGeometry>
        </mxCell>
        <mxCell id="l9uLVyRfMah0w7W8cOkY-42" value="INTEGER" style="shape=partialRectangle;html=1;connectable=0;strokeColor=inherit;overflow=hidden;fillColor=none;top=0;left=0;bottom=0;right=0;pointerEvents=1;fontSize=16;align=left;" vertex="1" parent="l9uLVyRfMah0w7W8cOkY-40">
          <mxGeometry x="84" width="94" height="24" as="geometry">
            <mxRectangle width="94" height="24" as="alternateBounds" />
          </mxGeometry>
        </mxCell>
        <mxCell id="l9uLVyRfMah0w7W8cOkY-43" value="NOT NULL" style="shape=partialRectangle;html=1;connectable=0;strokeColor=inherit;overflow=hidden;fillColor=none;top=0;left=0;bottom=0;right=0;pointerEvents=1;fontSize=16;align=left;" vertex="1" parent="l9uLVyRfMah0w7W8cOkY-40">
          <mxGeometry x="178" width="162" height="24" as="geometry">
            <mxRectangle width="162" height="24" as="alternateBounds" />
          </mxGeometry>
        </mxCell>
        <mxCell id="l9uLVyRfMah0w7W8cOkY-44" value="rec in &#39;table&#39; affected" style="shape=partialRectangle;html=1;connectable=0;strokeColor=inherit;overflow=hidden;fillColor=none;top=0;left=0;bottom=0;right=0;pointerEvents=1;fontSize=16;align=left;" vertex="1" parent="l9uLVyRfMah0w7W8cOkY-40">
          <mxGeometry x="340" width="340" height="24" as="geometry">
            <mxRectangle width="340" height="24" as="alternateBounds" />
          </mxGeometry>
        </mxCell>
        <mxCell id="l9uLVyRfMah0w7W8cOkY-50" style="shape=tableRow;horizontal=0;startSize=0;swimlaneHead=0;swimlaneBody=0;strokeColor=inherit;top=0;left=0;bottom=0;right=0;collapsible=0;dropTarget=0;fillColor=none;points=[[0,0.5],[1,0.5]];portConstraint=eastwest;fontSize=16;align=left;" vertex="1" parent="l9uLVyRfMah0w7W8cOkY-9">
          <mxGeometry y="98" width="680" height="24" as="geometry" />
        </mxCell>
        <mxCell id="l9uLVyRfMah0w7W8cOkY-51" value="action" style="shape=partialRectangle;html=1;connectable=0;strokeColor=inherit;overflow=hidden;fillColor=none;top=0;left=0;bottom=0;right=0;pointerEvents=1;fontSize=16;align=left;" vertex="1" parent="l9uLVyRfMah0w7W8cOkY-50">
          <mxGeometry width="84" height="24" as="geometry">
            <mxRectangle width="84" height="24" as="alternateBounds" />
          </mxGeometry>
        </mxCell>
        <mxCell id="l9uLVyRfMah0w7W8cOkY-52" value="text" style="shape=partialRectangle;html=1;connectable=0;strokeColor=inherit;overflow=hidden;fillColor=none;top=0;left=0;bottom=0;right=0;pointerEvents=1;fontSize=16;align=left;" vertex="1" parent="l9uLVyRfMah0w7W8cOkY-50">
          <mxGeometry x="84" width="94" height="24" as="geometry">
            <mxRectangle width="94" height="24" as="alternateBounds" />
          </mxGeometry>
        </mxCell>
        <mxCell id="l9uLVyRfMah0w7W8cOkY-53" value="&lt;span style=&quot;color: rgb(0, 0, 0); font-family: Helvetica; font-size: 16px; font-style: normal; font-variant-ligatures: normal; font-variant-caps: normal; font-weight: 400; letter-spacing: normal; orphans: 2; text-align: left; text-indent: 0px; text-transform: none; widows: 2; word-spacing: 0px; -webkit-text-stroke-width: 0px; white-space: nowrap; background-color: rgb(236, 236, 236); text-decoration-thickness: initial; text-decoration-style: initial; text-decoration-color: initial; display: inline !important; float: none;&quot;&gt;NOT NULL&lt;/span&gt;" style="shape=partialRectangle;html=1;connectable=0;strokeColor=inherit;overflow=hidden;fillColor=none;top=0;left=0;bottom=0;right=0;pointerEvents=1;fontSize=16;align=left;" vertex="1" parent="l9uLVyRfMah0w7W8cOkY-50">
          <mxGeometry x="178" width="162" height="24" as="geometry">
            <mxRectangle width="162" height="24" as="alternateBounds" />
          </mxGeometry>
        </mxCell>
        <mxCell id="l9uLVyRfMah0w7W8cOkY-54" value="&quot;add&quot;, &quot;del&quot;, &quot;mod&quot;, ..." style="shape=partialRectangle;html=1;connectable=0;strokeColor=inherit;overflow=hidden;fillColor=none;top=0;left=0;bottom=0;right=0;pointerEvents=1;fontSize=16;align=left;" vertex="1" parent="l9uLVyRfMah0w7W8cOkY-50">
          <mxGeometry x="340" width="340" height="24" as="geometry">
            <mxRectangle width="340" height="24" as="alternateBounds" />
          </mxGeometry>
        </mxCell>
        <mxCell id="l9uLVyRfMah0w7W8cOkY-35" style="shape=tableRow;horizontal=0;startSize=0;swimlaneHead=0;swimlaneBody=0;strokeColor=inherit;top=0;left=0;bottom=0;right=0;collapsible=0;dropTarget=0;fillColor=none;points=[[0,0.5],[1,0.5]];portConstraint=eastwest;fontSize=16;align=left;" vertex="1" parent="l9uLVyRfMah0w7W8cOkY-9">
          <mxGeometry y="122" width="680" height="24" as="geometry" />
        </mxCell>
        <mxCell id="l9uLVyRfMah0w7W8cOkY-36" value="group" style="shape=partialRectangle;html=1;connectable=0;strokeColor=inherit;overflow=hidden;fillColor=none;top=0;left=0;bottom=0;right=0;pointerEvents=1;fontSize=16;align=left;" vertex="1" parent="l9uLVyRfMah0w7W8cOkY-35">
          <mxGeometry width="84" height="24" as="geometry">
            <mxRectangle width="84" height="24" as="alternateBounds" />
          </mxGeometry>
        </mxCell>
        <mxCell id="l9uLVyRfMah0w7W8cOkY-37" value="INTEGER" style="shape=partialRectangle;html=1;connectable=0;strokeColor=inherit;overflow=hidden;fillColor=none;top=0;left=0;bottom=0;right=0;pointerEvents=1;fontSize=16;align=left;" vertex="1" parent="l9uLVyRfMah0w7W8cOkY-35">
          <mxGeometry x="84" width="94" height="24" as="geometry">
            <mxRectangle width="94" height="24" as="alternateBounds" />
          </mxGeometry>
        </mxCell>
        <mxCell id="l9uLVyRfMah0w7W8cOkY-38" value="NOT NULL" style="shape=partialRectangle;html=1;connectable=0;strokeColor=inherit;overflow=hidden;fillColor=none;top=0;left=0;bottom=0;right=0;pointerEvents=1;fontSize=16;align=left;" vertex="1" parent="l9uLVyRfMah0w7W8cOkY-35">
          <mxGeometry x="178" width="162" height="24" as="geometry">
            <mxRectangle width="162" height="24" as="alternateBounds" />
          </mxGeometry>
        </mxCell>
        <mxCell id="l9uLVyRfMah0w7W8cOkY-39" value="&lt;strike&gt;multiple deltas can happen simultaneously&lt;/strike&gt;" style="shape=partialRectangle;html=1;connectable=0;strokeColor=inherit;overflow=hidden;fillColor=none;top=0;left=0;bottom=0;right=0;pointerEvents=1;fontSize=16;align=left;" vertex="1" parent="l9uLVyRfMah0w7W8cOkY-35">
          <mxGeometry x="340" width="340" height="24" as="geometry">
            <mxRectangle width="340" height="24" as="alternateBounds" />
          </mxGeometry>
        </mxCell>
        <mxCell id="l9uLVyRfMah0w7W8cOkY-20" style="shape=tableRow;horizontal=0;startSize=0;swimlaneHead=0;swimlaneBody=0;strokeColor=inherit;top=0;left=0;bottom=0;right=0;collapsible=0;dropTarget=0;fillColor=none;points=[[0,0.5],[1,0.5]];portConstraint=eastwest;fontSize=16;align=left;" vertex="1" parent="l9uLVyRfMah0w7W8cOkY-9">
          <mxGeometry y="146" width="680" height="20" as="geometry" />
        </mxCell>
        <mxCell id="l9uLVyRfMah0w7W8cOkY-21" value="time" style="shape=partialRectangle;html=1;connectable=0;strokeColor=inherit;overflow=hidden;fillColor=none;top=0;left=0;bottom=0;right=0;pointerEvents=1;fontSize=16;align=left;" vertex="1" parent="l9uLVyRfMah0w7W8cOkY-20">
          <mxGeometry width="84" height="20" as="geometry">
            <mxRectangle width="84" height="20" as="alternateBounds" />
          </mxGeometry>
        </mxCell>
        <mxCell id="l9uLVyRfMah0w7W8cOkY-22" value="INTEGER" style="shape=partialRectangle;html=1;connectable=0;strokeColor=inherit;overflow=hidden;fillColor=none;top=0;left=0;bottom=0;right=0;pointerEvents=1;fontSize=16;align=left;" vertex="1" parent="l9uLVyRfMah0w7W8cOkY-20">
          <mxGeometry x="84" width="94" height="20" as="geometry">
            <mxRectangle width="94" height="20" as="alternateBounds" />
          </mxGeometry>
        </mxCell>
        <mxCell id="l9uLVyRfMah0w7W8cOkY-23" value="NOT NULL" style="shape=partialRectangle;html=1;connectable=0;strokeColor=inherit;overflow=hidden;fillColor=none;top=0;left=0;bottom=0;right=0;pointerEvents=1;fontSize=16;align=left;" vertex="1" parent="l9uLVyRfMah0w7W8cOkY-20">
          <mxGeometry x="178" width="162" height="20" as="geometry">
            <mxRectangle width="162" height="20" as="alternateBounds" />
          </mxGeometry>
        </mxCell>
        <mxCell id="l9uLVyRfMah0w7W8cOkY-24" value="Date.now()&amp;nbsp; aka millis (doubles as group)" style="shape=partialRectangle;html=1;connectable=0;strokeColor=inherit;overflow=hidden;fillColor=none;top=0;left=0;bottom=0;right=0;pointerEvents=1;fontSize=16;align=left;whiteSpace=wrap;" vertex="1" parent="l9uLVyRfMah0w7W8cOkY-20">
          <mxGeometry x="340" width="340" height="20" as="geometry">
            <mxRectangle width="340" height="20" as="alternateBounds" />
          </mxGeometry>
        </mxCell>
        <mxCell id="l9uLVyRfMah0w7W8cOkY-45" style="shape=tableRow;horizontal=0;startSize=0;swimlaneHead=0;swimlaneBody=0;strokeColor=inherit;top=0;left=0;bottom=0;right=0;collapsible=0;dropTarget=0;fillColor=none;points=[[0,0.5],[1,0.5]];portConstraint=eastwest;fontSize=16;align=left;" vertex="1" parent="l9uLVyRfMah0w7W8cOkY-9">
          <mxGeometry y="166" width="680" height="20" as="geometry" />
        </mxCell>
        <mxCell id="l9uLVyRfMah0w7W8cOkY-46" value="isDelta" style="shape=partialRectangle;html=1;connectable=0;strokeColor=inherit;overflow=hidden;fillColor=none;top=0;left=0;bottom=0;right=0;pointerEvents=1;fontSize=16;align=left;" vertex="1" parent="l9uLVyRfMah0w7W8cOkY-45">
          <mxGeometry width="84" height="20" as="geometry">
            <mxRectangle width="84" height="20" as="alternateBounds" />
          </mxGeometry>
        </mxCell>
        <mxCell id="l9uLVyRfMah0w7W8cOkY-47" value="INTEGER" style="shape=partialRectangle;html=1;connectable=0;strokeColor=inherit;overflow=hidden;fillColor=none;top=0;left=0;bottom=0;right=0;pointerEvents=1;fontSize=16;align=left;" vertex="1" parent="l9uLVyRfMah0w7W8cOkY-45">
          <mxGeometry x="84" width="94" height="20" as="geometry">
            <mxRectangle width="94" height="20" as="alternateBounds" />
          </mxGeometry>
        </mxCell>
        <mxCell id="l9uLVyRfMah0w7W8cOkY-48" value="NOT NULL" style="shape=partialRectangle;html=1;connectable=0;strokeColor=inherit;overflow=hidden;fillColor=none;top=0;left=0;bottom=0;right=0;pointerEvents=1;fontSize=16;align=left;" vertex="1" parent="l9uLVyRfMah0w7W8cOkY-45">
          <mxGeometry x="178" width="162" height="20" as="geometry">
            <mxRectangle width="162" height="20" as="alternateBounds" />
          </mxGeometry>
        </mxCell>
        <mxCell id="l9uLVyRfMah0w7W8cOkY-49" value="is delta a delta(1) or a complete replace(0)" style="shape=partialRectangle;html=1;connectable=0;strokeColor=inherit;overflow=hidden;fillColor=none;top=0;left=0;bottom=0;right=0;pointerEvents=1;fontSize=16;align=left;whiteSpace=wrap;" vertex="1" parent="l9uLVyRfMah0w7W8cOkY-45">
          <mxGeometry x="340" width="340" height="20" as="geometry">
            <mxRectangle width="340" height="20" as="alternateBounds" />
          </mxGeometry>
        </mxCell>
        <mxCell id="l9uLVyRfMah0w7W8cOkY-25" style="shape=tableRow;horizontal=0;startSize=0;swimlaneHead=0;swimlaneBody=0;strokeColor=inherit;top=0;left=0;bottom=0;right=0;collapsible=0;dropTarget=0;fillColor=none;points=[[0,0.5],[1,0.5]];portConstraint=eastwest;fontSize=16;align=left;" vertex="1" parent="l9uLVyRfMah0w7W8cOkY-9">
          <mxGeometry y="186" width="680" height="20" as="geometry" />
        </mxCell>
        <mxCell id="l9uLVyRfMah0w7W8cOkY-26" value="undo" style="shape=partialRectangle;html=1;connectable=0;strokeColor=inherit;overflow=hidden;fillColor=none;top=0;left=0;bottom=0;right=0;pointerEvents=1;fontSize=16;align=left;" vertex="1" parent="l9uLVyRfMah0w7W8cOkY-25">
          <mxGeometry width="84" height="20" as="geometry">
            <mxRectangle width="84" height="20" as="alternateBounds" />
          </mxGeometry>
        </mxCell>
        <mxCell id="l9uLVyRfMah0w7W8cOkY-27" value="BLOB" style="shape=partialRectangle;html=1;connectable=0;strokeColor=inherit;overflow=hidden;fillColor=none;top=0;left=0;bottom=0;right=0;pointerEvents=1;fontSize=16;align=left;" vertex="1" parent="l9uLVyRfMah0w7W8cOkY-25">
          <mxGeometry x="84" width="94" height="20" as="geometry">
            <mxRectangle width="94" height="20" as="alternateBounds" />
          </mxGeometry>
        </mxCell>
        <mxCell id="l9uLVyRfMah0w7W8cOkY-28" value="NOT NULL" style="shape=partialRectangle;html=1;connectable=0;strokeColor=inherit;overflow=hidden;fillColor=none;top=0;left=0;bottom=0;right=0;pointerEvents=1;fontSize=16;align=left;" vertex="1" parent="l9uLVyRfMah0w7W8cOkY-25">
          <mxGeometry x="178" width="162" height="20" as="geometry">
            <mxRectangle width="162" height="20" as="alternateBounds" />
          </mxGeometry>
        </mxCell>
        <mxCell id="l9uLVyRfMah0w7W8cOkY-29" value="delta moving backward in history" style="shape=partialRectangle;html=1;connectable=0;strokeColor=inherit;overflow=hidden;fillColor=none;top=0;left=0;bottom=0;right=0;pointerEvents=1;fontSize=16;align=left;whiteSpace=wrap;" vertex="1" parent="l9uLVyRfMah0w7W8cOkY-25">
          <mxGeometry x="340" width="340" height="20" as="geometry">
            <mxRectangle width="340" height="20" as="alternateBounds" />
          </mxGeometry>
        </mxCell>
        <mxCell id="l9uLVyRfMah0w7W8cOkY-30" style="shape=tableRow;horizontal=0;startSize=0;swimlaneHead=0;swimlaneBody=0;strokeColor=inherit;top=0;left=0;bottom=0;right=0;collapsible=0;dropTarget=0;fillColor=none;points=[[0,0.5],[1,0.5]];portConstraint=eastwest;fontSize=16;align=left;" vertex="1" parent="l9uLVyRfMah0w7W8cOkY-9">
          <mxGeometry y="206" width="680" height="20" as="geometry" />
        </mxCell>
        <mxCell id="l9uLVyRfMah0w7W8cOkY-31" value="redo" style="shape=partialRectangle;html=1;connectable=0;strokeColor=inherit;overflow=hidden;fillColor=none;top=0;left=0;bottom=0;right=0;pointerEvents=1;fontSize=16;align=left;fontColor=#000000;" vertex="1" parent="l9uLVyRfMah0w7W8cOkY-30">
          <mxGeometry width="84" height="20" as="geometry">
            <mxRectangle width="84" height="20" as="alternateBounds" />
          </mxGeometry>
        </mxCell>
        <mxCell id="l9uLVyRfMah0w7W8cOkY-32" value="BLOB" style="shape=partialRectangle;html=1;connectable=0;strokeColor=inherit;overflow=hidden;fillColor=none;top=0;left=0;bottom=0;right=0;pointerEvents=1;fontSize=16;align=left;fontColor=#000000;" vertex="1" parent="l9uLVyRfMah0w7W8cOkY-30">
          <mxGeometry x="84" width="94" height="20" as="geometry">
            <mxRectangle width="94" height="20" as="alternateBounds" />
          </mxGeometry>
        </mxCell>
        <mxCell id="l9uLVyRfMah0w7W8cOkY-33" value="NOT NULL" style="shape=partialRectangle;html=1;connectable=0;strokeColor=inherit;overflow=hidden;fillColor=none;top=0;left=0;bottom=0;right=0;pointerEvents=1;fontSize=16;align=left;fontColor=#000000;" vertex="1" parent="l9uLVyRfMah0w7W8cOkY-30">
          <mxGeometry x="178" width="162" height="20" as="geometry">
            <mxRectangle width="162" height="20" as="alternateBounds" />
          </mxGeometry>
        </mxCell>
        <mxCell id="l9uLVyRfMah0w7W8cOkY-34" value="delta moving forward in history" style="shape=partialRectangle;html=1;connectable=0;strokeColor=inherit;overflow=hidden;fillColor=none;top=0;left=0;bottom=0;right=0;pointerEvents=1;fontSize=16;align=left;fontColor=#000000;" vertex="1" parent="l9uLVyRfMah0w7W8cOkY-30">
          <mxGeometry x="340" width="340" height="20" as="geometry">
            <mxRectangle width="340" height="20" as="alternateBounds" />
          </mxGeometry>
        </mxCell>
      </root>
    </mxGraphModel>
  </diagram>
</mxfile>
